<svg width="30" height="21" viewBox="0 0 30 21" fill="none" xmlns="http://www.w3.org/2000/svg">
<path d="M1.21094 19.6953H2.42871V20.0352C2.42878 20.163 2.47223 20.2796 2.54297 20.375H1.21094C1.02346 20.375 0.87126 20.2226 0.871094 20.0352C0.871094 19.8476 1.02336 19.6953 1.21094 19.6953ZM24.8496 11.1094H27.3232C27.5106 11.1095 27.6629 11.2618 27.6631 11.4492V19.4609H26.9834V11.7891H25.1895V19.4609H24.5098V11.4492C24.5099 11.2618 24.6621 11.1094 24.8496 11.1094ZM3.00195 17.7207H3.11328V18.0605C3.11328 18.2474 3.20356 18.4118 3.3418 18.5166V19.4609H2.66309V18.0605C2.66322 17.8732 2.81466 17.7209 3.00195 17.7207ZM8.86523 12.8125C8.96378 12.885 9.08283 12.9247 9.20508 12.9248C9.29142 12.9248 9.37985 12.9052 9.46191 12.8643L9.54492 12.8223V17.4863H8.86523V12.8125ZM6.44629 8.73438C7.00036 8.73443 7.52016 8.8818 7.9707 9.1377L7.91602 9.16602C7.70637 9.27065 7.58867 9.48623 7.59863 9.70605C7.25584 9.51954 6.86325 9.41314 6.44629 9.41309C5.88094 9.41309 5.3442 9.60572 4.91309 9.95996L4.73535 10.1221C4.28768 10.5696 4.03555 11.1645 4.02637 11.7969V17.4863H3.34766V11.792C3.35828 10.9799 3.68018 10.2161 4.25488 9.6416C4.84007 9.05619 5.61828 8.73438 6.44629 8.73438ZM6.44629 10.8281C7.12368 10.8282 7.67462 11.3793 7.6748 12.0566C7.67473 12.7342 7.12378 13.286 6.44629 13.2861C5.76861 13.2861 5.2168 12.7343 5.2168 12.0566C5.21699 11.3791 5.7688 10.8281 6.44629 10.8281ZM9.54492 12.5605L9.35645 12.6553C9.30763 12.6795 9.25562 12.6904 9.20508 12.6904C9.08031 12.6903 8.96079 12.6217 8.90137 12.5029C8.81763 12.3351 8.88583 12.1306 9.05371 12.0469L9.54395 11.8018C9.54405 11.8121 9.54492 11.8226 9.54492 11.833V12.5605ZM6.44629 11.5068C6.14305 11.5068 5.89663 11.7535 5.89648 12.0566C5.89648 12.36 6.14306 12.6064 6.44629 12.6064C6.74952 12.6063 6.99609 12.3598 6.99609 12.0566C6.99595 11.7536 6.74934 11.507 6.44629 11.5068ZM8.9043 9.95508C9.24932 10.4057 9.47545 10.9509 9.53027 11.5469L8.94922 11.8379C8.91921 11.8529 8.89137 11.8704 8.86523 11.8896V11.833C8.86523 11.2241 8.63721 10.6689 8.26465 10.2432C8.31999 10.234 8.37589 10.2197 8.42871 10.1934L8.9043 9.95508ZM13.0508 10.2529C13.2065 10.3573 13.2487 10.5679 13.1445 10.7236C13.0792 10.8213 12.9712 10.875 12.8613 10.875C12.7965 10.8749 12.731 10.8563 12.6729 10.8174L12.1797 10.4863L12.8789 10.1377L13.0508 10.2529ZM16.5908 8.99219C16.6069 9.00293 16.6239 9.01158 16.6406 9.02051L13.4268 10.623C13.46 10.4094 13.3731 10.1859 13.1816 10.0576L13.1211 10.0166L15.9863 8.58691L16.5908 8.99219ZM12.6553 9.98828L11.9561 10.3369L10.3271 9.24512L11.0273 8.89648L12.6553 9.98828ZM8.2041 9.2832C8.40577 9.42269 8.58777 9.5874 8.75098 9.76953L8.32324 9.9834C8.15535 10.067 7.95193 9.99888 7.86816 9.83105C7.78461 9.66326 7.8527 9.45974 8.02051 9.37598L8.2041 9.2832ZM9.56836 8.60254C9.52863 8.82055 9.61761 9.05137 9.81348 9.18262L9.8623 9.21484L8.9707 9.66016C8.81281 9.47694 8.63611 9.31037 8.44238 9.16504L9.56836 8.60254ZM9.85059 8.5166C9.95502 8.36075 10.1665 8.3194 10.3223 8.42383L10.8027 8.74609L10.1025 9.09473L9.94336 8.98828C9.7876 8.88384 9.74622 8.67236 9.85059 8.5166ZM17.0996 8.2334C17.2551 8.3379 17.2966 8.54838 17.1924 8.7041C17.1271 8.8016 17.02 8.85441 16.9102 8.85449C16.8452 8.85449 16.7789 8.8359 16.7207 8.79688L16.2285 8.4668L16.9277 8.11816L17.0996 8.2334ZM13.6162 6.58301C13.5766 6.80093 13.6655 7.03189 13.8613 7.16309L13.9102 7.19531L11.0439 8.625L10.4521 8.22852C10.4316 8.21478 10.4092 8.2051 10.3877 8.19434L13.6162 6.58301ZM20.5449 7.01855C20.5608 7.02921 20.5782 7.038 20.5947 7.04688L17.4746 8.60352C17.5079 8.38977 17.421 8.16645 17.2295 8.03809L17.1689 7.99707L19.9414 6.61426L20.5449 7.01855ZM16.7041 7.96777L16.0049 8.31641L14.376 7.22461L15.0752 6.87598L16.7041 7.96777ZM13.8994 6.49707C14.0038 6.34136 14.2144 6.29912 14.3701 6.40332V6.4043L14.8506 6.72559L14.1514 7.07422L13.9922 6.96777C13.8363 6.86334 13.795 6.65286 13.8994 6.49707ZM21.0537 6.25977C21.2095 6.3642 21.2519 6.57558 21.1475 6.73145C21.082 6.82896 20.974 6.88184 20.8643 6.88184C20.7994 6.88177 20.7339 6.86317 20.6758 6.82422L20.1826 6.49316L20.8818 6.14453L21.0537 6.25977ZM24.5 5.0459C24.5159 5.05656 24.5333 5.06437 24.5498 5.07324L21.4297 6.62988C21.4628 6.41633 21.3758 6.19371 21.1846 6.06543L21.123 6.02441L23.8965 4.64062L24.5 5.0459ZM17.5713 4.60938C17.5315 4.82745 17.6206 5.05817 17.8164 5.18945L17.8652 5.22168L15.0928 6.60547L14.501 6.20898C14.4804 6.19518 14.4581 6.18464 14.4365 6.17383L17.5713 4.60938ZM20.6582 5.99414L19.959 6.34375L18.3301 5.25195L19.0303 4.90332L20.6582 5.99414ZM17.8535 4.52344C17.958 4.36773 18.1693 4.32622 18.3252 4.43066L18.8057 4.75293L18.1055 5.10156L17.9463 4.99512C17.7906 4.89062 17.7491 4.67914 17.8535 4.52344ZM25.0088 4.28711C25.1644 4.3916 25.2059 4.60203 25.1016 4.75781C25.0361 4.85538 24.9292 4.90817 24.8193 4.9082C24.7544 4.9082 24.6891 4.88957 24.6309 4.85059L24.1377 4.52051L24.8369 4.17188L25.0088 4.28711ZM25.8799 0.464844C26.1514 0.329467 26.4585 0.308261 26.7461 0.404297C27.0339 0.500491 27.2669 0.702121 27.4023 0.973633L27.9648 2.10254C28.2441 2.66208 28.016 3.34454 27.4561 3.62402L25.3848 4.65625C25.4176 4.4429 25.3307 4.21997 25.1396 4.0918L25.0791 4.05078L27.1533 3.0166C27.378 2.9044 27.4696 2.63003 27.3574 2.40527L26.7939 1.27734C26.7397 1.16868 26.6465 1.08636 26.5312 1.04785C26.4162 1.00943 26.2922 1.01831 26.1836 1.07227L23.002 2.65918L22.4102 2.2627C22.3893 2.2487 22.3667 2.23846 22.3447 2.22754L25.8799 0.464844ZM21.5254 2.63672C21.4858 2.85461 21.5749 3.08561 21.7705 3.2168L21.8193 3.24902L19.0469 4.63281L18.4551 4.23633C18.4342 4.22231 18.4116 4.2121 18.3896 4.20117L21.5254 2.63672ZM24.6123 4.02148L23.9141 4.37012L22.2852 3.27832L22.9844 2.92969L24.6123 4.02148ZM21.8086 2.55078C21.9129 2.39509 22.1235 2.35294 22.2793 2.45703L22.7607 2.7793L22.0615 3.12793L21.9014 3.02148C21.7457 2.91701 21.7042 2.7065 21.8086 2.55078ZM2.66309 19.6953H3.3418V20.0352C3.34163 20.2226 3.18943 20.375 3.00195 20.375C2.81468 20.3748 2.66325 20.2224 2.66309 20.0352V19.6953ZM3.57617 19.6953H9.31543V20.0352C9.3155 20.1629 9.35906 20.2797 9.42969 20.375H3.46191C3.53263 20.2796 3.5761 20.163 3.57617 20.0352V19.6953ZM9.5498 19.6953H10.2295V20.0352C10.2293 20.2226 10.0771 20.375 9.88965 20.375C9.70217 20.375 9.54997 20.2226 9.5498 20.0352V19.6953ZM10.4639 19.6953H24.2754V20.0352C24.2755 20.1629 24.319 20.2796 24.3896 20.375H10.3496C10.4202 20.2797 10.4638 20.1629 10.4639 20.0352V19.6953ZM24.5098 19.6953H25.1895V20.0352C25.1893 20.2225 25.037 20.3749 24.8496 20.375C24.6621 20.375 24.5099 20.2226 24.5098 20.0352V19.6953ZM25.4238 19.6953H26.749V20.0352C26.7491 20.1629 26.7926 20.2796 26.8633 20.375H25.3086C25.3794 20.2796 25.4238 20.163 25.4238 20.0352V19.6953ZM26.9834 19.6953H27.6631V20.0352C27.6629 20.2225 27.5107 20.3749 27.3232 20.375C27.1358 20.375 26.9836 20.2226 26.9834 20.0352V19.6953ZM27.8975 19.6953H29.5371C29.7245 19.6955 29.876 19.8477 29.876 20.0352C29.8758 20.2225 29.7244 20.3748 29.5371 20.375H27.7832C27.8538 20.2797 27.8974 20.1629 27.8975 20.0352V19.6953ZM3.34766 17.7207H4.02637V18.0605C4.02637 18.2481 3.8741 18.4004 3.68652 18.4004C3.49912 18.4002 3.34766 18.248 3.34766 18.0605V17.7207ZM4.26074 17.7207H8.63086V18.0605C8.63086 18.1882 8.67461 18.305 8.74512 18.4004H4.14746C4.21786 18.3051 4.26074 18.1881 4.26074 18.0605V17.7207ZM8.86523 17.7207H9.54492V18.0605C9.54492 18.248 9.39267 18.4004 9.20508 18.4004C9.01752 18.4004 8.86523 18.2481 8.86523 18.0605V17.7207ZM9.7793 17.7207H9.88965C10.0771 17.7207 10.2294 17.8731 10.2295 18.0605V19.4609H9.5498V18.5176C9.68847 18.4128 9.7793 18.2477 9.7793 18.0605V17.7207ZM9.77441 11.6865L11.9385 10.6064L12.542 11.0117C12.5582 11.0226 12.5759 11.031 12.5928 11.04L9.7793 12.4434V11.833C9.7793 11.7839 9.77652 11.7351 9.77441 11.6865Z" fill="#FAF2E7" stroke="#FAF2E7" stroke-width="0.234406"/>
</svg>
