<svg width="28" height="24" viewBox="0 0 28 24" fill="none" xmlns="http://www.w3.org/2000/svg">
<mask id="path-1-inside-1_37_995" fill="white">
<path fill-rule="evenodd" clip-rule="evenodd" d="M1.25429 0.258533C1.10114 0.334429 0.991525 0.444656 0.917827 0.596892L0.859375 0.717608L0.859987 11.6355L0.860599 22.5535L0.917354 22.6787C0.98507 22.828 1.05749 22.9105 1.20714 23.0088L1.31842 23.0818L1.54099 23.0819L1.76356 23.0821L1.84702 23.0283C1.98643 22.9385 2.08553 22.8373 2.14866 22.7204L2.20869 22.6091L2.21665 21.2388L2.22461 19.8684L4.56753 19.8755L6.91045 19.8826L6.92436 21.2459L6.93827 22.6091L6.98534 22.7065C7.04694 22.8339 7.1351 22.9277 7.27212 23.0115L7.3834 23.0795L7.59412 23.0808L7.80484 23.0821L7.93838 22.9986L8.07192 22.9151L8.15154 22.8039L8.23117 22.6926L8.25938 22.5427L8.28759 22.3929V11.9777V1.5625H10.569H12.8505L12.8434 4.41889L12.8363 7.27527L12.6416 7.33601C11.7609 7.61057 11.0446 8.31962 10.7533 9.20513C10.6568 9.49856 10.6248 9.72375 10.6257 10.1036L10.6265 10.4235L10.664 10.6336C10.7957 11.3718 11.246 12.0515 11.8986 12.4973C12.2041 12.7059 12.433 12.8018 12.9754 12.9483L13.0867 12.9783L13.504 12.9793L13.9213 12.9802L14.1999 12.9063C14.5415 12.8158 14.8498 12.6761 15.1532 12.4745L15.3834 12.3215L15.5932 12.0985C16.0238 11.6408 16.2618 11.1714 16.3699 10.5667L16.4189 10.2925L16.4035 9.99636C16.3675 9.30657 16.1404 8.72341 15.7071 8.20828L15.5454 8.01604L15.3002 7.82872C14.9571 7.56664 14.7015 7.43032 14.3526 7.32335L14.1996 7.27641L14.1925 4.41947L14.1854 1.5625H16.7589H19.3325V4.42328V7.28409L19.1925 7.31639C19.1155 7.33417 18.9966 7.37418 18.9283 7.40531C18.86 7.43641 18.7736 7.47344 18.7364 7.4876C18.6992 7.50176 18.5583 7.58523 18.4233 7.67306L18.178 7.83278L17.9539 8.05704C17.2911 8.72027 17.0152 9.55212 17.1363 10.5216L17.1658 10.7574L17.2517 11.0057C17.5865 11.9739 18.2843 12.6229 19.2908 12.902L19.569 12.9792L19.9863 12.9803L20.4036 12.9813L20.6958 12.9036C21.2972 12.7437 21.8196 12.4228 22.1742 11.9954C22.4709 11.6378 22.5669 11.4778 22.7155 11.0939L22.8113 10.8462L22.8524 10.5931C22.9041 10.2739 22.9044 9.96854 22.8532 9.62898C22.8035 9.2995 22.7591 9.16279 22.5868 8.80988L22.451 8.53167L22.2729 8.30726C22.0197 7.98821 21.5223 7.58581 21.2562 7.48463C21.2162 7.46941 21.1434 7.43794 21.0944 7.41471C21.0454 7.39145 20.9326 7.35083 20.8436 7.32443L20.6818 7.27641L20.6748 4.41947L20.6677 1.5625H22.9491H25.2306V2.70044V3.83837L24.862 3.84806L24.4933 3.85774L24.3292 3.94087L24.1652 4.02402L24.0733 4.16344L23.9814 4.30287L23.9634 4.44268L23.9453 4.5825L23.9766 4.69885C23.9939 4.76287 24.0484 4.86895 24.0978 4.93463L24.1877 5.05404L24.3385 5.13055L24.4894 5.20706H24.86H25.2306V6.36163V7.5162H24.893H24.5554L24.4547 7.54639C24.3993 7.56297 24.305 7.60993 24.2451 7.65072L24.1361 7.72486L24.0504 7.86397L23.9647 8.00307L23.9659 8.2038L23.967 8.40456L24.0772 8.56269L24.1873 8.72083L24.3264 8.79319L24.4655 8.86552L24.848 8.87515L25.2306 8.88477V10.0341V11.1833L24.8341 11.1929L24.4377 11.2025L24.3138 11.272L24.1899 11.3416L24.0989 11.461C24.0489 11.5267 23.9938 11.633 23.9765 11.6972L23.9451 11.814L23.9616 11.9348C23.9941 12.1713 24.1608 12.4032 24.3574 12.4854L24.4498 12.524H24.8402H25.2306V13.6786V14.8331L24.9176 14.8334L24.6046 14.8337L24.4666 14.8756C24.2771 14.9331 24.1588 15.0188 24.0614 15.1692L23.9789 15.2967L23.9614 15.4239L23.944 15.5511L23.9781 15.6934L24.0123 15.8358L24.1554 15.9857L24.2986 16.1357L24.4099 16.1659L24.5211 16.1961L24.8759 16.1962L25.2306 16.1964V17.3509V18.5055H24.9012H24.5717L24.4409 18.5449C24.2673 18.5971 24.1417 18.6968 24.0448 18.8591L23.9653 18.9924L23.965 19.1871L23.9647 19.3819L24.0418 19.5131C24.1359 19.673 24.2671 19.7771 24.4409 19.8293L24.5717 19.8687H24.9002H25.2286L25.2365 21.2389L25.2445 22.6091L25.3045 22.7204C25.3677 22.8373 25.4668 22.9385 25.6062 23.0283L25.6896 23.0821L25.9122 23.0819L26.1348 23.0818L26.2461 23.0088C26.3957 22.9105 26.4681 22.828 26.5358 22.6787L26.5926 22.5535L26.5932 21.2111L26.5938 19.8687H26.9226H27.2514L27.396 19.8258L27.5405 19.7829L27.6419 19.6939L27.7433 19.6049L27.8082 19.4655L27.873 19.3262L27.8733 19.1875L27.8736 19.0488L27.7985 18.9003C27.7572 18.8187 27.6822 18.7158 27.6319 18.6716L27.5405 18.5914L27.396 18.5484L27.2514 18.5055H26.9226H26.5938V17.3509V16.1964L26.9624 16.1951L27.3311 16.1939L27.433 16.1575C27.5711 16.1082 27.6835 16.0125 27.7795 15.8625L27.8597 15.7373L27.8578 15.5287L27.856 15.32L27.7809 15.1913L27.7058 15.0627L27.5977 14.9877C27.5382 14.9465 27.4299 14.8949 27.3572 14.8729L27.2249 14.8331H26.9093H26.5938V13.6805V12.5279L27.0224 12.519L27.451 12.5101L27.5719 12.4226L27.6927 12.335L27.7743 12.2026L27.8558 12.0701L27.8682 11.9208L27.8806 11.7714L27.8319 11.644C27.8052 11.5739 27.7442 11.4721 27.6965 11.4177L27.6097 11.3189L27.4704 11.254L27.3311 11.1891L26.9624 11.1889L26.5938 11.1886V10.034V8.87943H26.9153H27.2369L27.3535 8.84975C27.4177 8.83344 27.52 8.78606 27.5809 8.7445L27.6915 8.66894L27.7756 8.53281L27.8597 8.39668L27.8591 8.19988L27.8586 8.00307L27.7793 7.86984C27.6869 7.71434 27.5696 7.61755 27.4022 7.55849L27.2824 7.5162H26.9381H26.5938V6.36163V5.20706L26.9624 5.20678L27.3311 5.2065L27.4704 5.14165L27.6097 5.07677L27.6965 4.97792C27.7442 4.92353 27.8053 4.82129 27.8323 4.75071L27.8813 4.62234L27.8658 4.47172L27.8502 4.3211L27.7554 4.17287L27.6606 4.02466L27.4958 3.9412L27.3311 3.85774L26.9624 3.84806L26.5938 3.83837V2.28758V0.736749L26.5093 0.567597L26.4248 0.398445L26.2804 0.305829L26.136 0.213185L13.7551 0.206202L1.37406 0.199219L1.25429 0.258533ZM6.92436 2.70317V3.84383H4.57348H2.2226V2.70317V1.5625H4.57348H6.92436V2.70317ZM6.91771 6.36859L6.92497 7.5162H4.57379H2.2226V6.36146V5.20675L4.56653 5.21385L6.91045 5.22097L6.91771 6.36859ZM13.736 8.57382L13.9402 8.6003L14.1116 8.67587C14.5664 8.87632 14.8857 9.25532 15.0087 9.74063L15.0542 9.92022L15.0423 10.1719L15.0304 10.4235L14.9645 10.6043C14.8779 10.8424 14.7252 11.0661 14.5317 11.2385L14.3746 11.3786L14.1636 11.4801L13.9526 11.5817L13.7353 11.6134L13.5179 11.645L13.2884 11.6121L13.0589 11.5791L12.826 11.4643L12.5931 11.3495L12.4226 11.1765L12.2521 11.0035L12.1485 10.7969L12.045 10.5904L11.9967 10.3309L11.9483 10.0713L11.9967 9.8301L12.0451 9.58887L12.1339 9.40803L12.2226 9.22719L12.4357 9.0115L12.6489 8.7958L12.8633 8.69812L13.0776 8.60044L13.263 8.57654C13.5159 8.54391 13.5062 8.54397 13.736 8.57382ZM20.2176 8.5744L20.4475 8.60322L20.6484 8.6986L20.8494 8.79399L21.0102 8.93738C21.0987 9.01626 21.2188 9.15127 21.277 9.23743L21.3829 9.39412L21.4615 9.6306L21.5401 9.86708L21.5382 10.1175L21.5364 10.3679L21.4664 10.5669C21.2546 11.1692 20.7461 11.5718 20.1315 11.6237L19.9292 11.6408L19.7309 11.6074L19.5327 11.574L19.3627 11.4936C18.9345 11.291 18.6486 10.9576 18.5269 10.5186L18.4701 10.3133V10.0896V9.86596L18.5269 9.6607C18.6021 9.38945 18.6933 9.24008 18.9287 9.00226L19.1239 8.80512L19.3412 8.70285L19.5585 8.60058L19.7446 8.5766C19.8469 8.56341 19.9435 8.55103 19.9592 8.54908C19.9749 8.54717 20.0912 8.55854 20.2176 8.5744ZM6.91771 10.027L6.91045 11.1747L4.56653 11.1818L2.2226 11.1889V10.0342V8.87943H4.57379H6.92497L6.91771 10.027ZM6.91771 13.6855L6.92497 14.8331H4.57379H2.2226V13.6784V12.5237L4.56653 12.5308L6.91045 12.5379L6.91771 13.6855ZM6.91771 17.344L6.91045 18.4916L4.56653 18.4987L2.2226 18.5058V17.3511V16.1964H4.57379H6.92497L6.91771 17.344Z"/>
</mask>
<path fill-rule="evenodd" clip-rule="evenodd" d="M1.25429 0.258533C1.10114 0.334429 0.991525 0.444656 0.917827 0.596892L0.859375 0.717608L0.859987 11.6355L0.860599 22.5535L0.917354 22.6787C0.98507 22.828 1.05749 22.9105 1.20714 23.0088L1.31842 23.0818L1.54099 23.0819L1.76356 23.0821L1.84702 23.0283C1.98643 22.9385 2.08553 22.8373 2.14866 22.7204L2.20869 22.6091L2.21665 21.2388L2.22461 19.8684L4.56753 19.8755L6.91045 19.8826L6.92436 21.2459L6.93827 22.6091L6.98534 22.7065C7.04694 22.8339 7.1351 22.9277 7.27212 23.0115L7.3834 23.0795L7.59412 23.0808L7.80484 23.0821L7.93838 22.9986L8.07192 22.9151L8.15154 22.8039L8.23117 22.6926L8.25938 22.5427L8.28759 22.3929V11.9777V1.5625H10.569H12.8505L12.8434 4.41889L12.8363 7.27527L12.6416 7.33601C11.7609 7.61057 11.0446 8.31962 10.7533 9.20513C10.6568 9.49856 10.6248 9.72375 10.6257 10.1036L10.6265 10.4235L10.664 10.6336C10.7957 11.3718 11.246 12.0515 11.8986 12.4973C12.2041 12.7059 12.433 12.8018 12.9754 12.9483L13.0867 12.9783L13.504 12.9793L13.9213 12.9802L14.1999 12.9063C14.5415 12.8158 14.8498 12.6761 15.1532 12.4745L15.3834 12.3215L15.5932 12.0985C16.0238 11.6408 16.2618 11.1714 16.3699 10.5667L16.4189 10.2925L16.4035 9.99636C16.3675 9.30657 16.1404 8.72341 15.7071 8.20828L15.5454 8.01604L15.3002 7.82872C14.9571 7.56664 14.7015 7.43032 14.3526 7.32335L14.1996 7.27641L14.1925 4.41947L14.1854 1.5625H16.7589H19.3325V4.42328V7.28409L19.1925 7.31639C19.1155 7.33417 18.9966 7.37418 18.9283 7.40531C18.86 7.43641 18.7736 7.47344 18.7364 7.4876C18.6992 7.50176 18.5583 7.58523 18.4233 7.67306L18.178 7.83278L17.9539 8.05704C17.2911 8.72027 17.0152 9.55212 17.1363 10.5216L17.1658 10.7574L17.2517 11.0057C17.5865 11.9739 18.2843 12.6229 19.2908 12.902L19.569 12.9792L19.9863 12.9803L20.4036 12.9813L20.6958 12.9036C21.2972 12.7437 21.8196 12.4228 22.1742 11.9954C22.4709 11.6378 22.5669 11.4778 22.7155 11.0939L22.8113 10.8462L22.8524 10.5931C22.9041 10.2739 22.9044 9.96854 22.8532 9.62898C22.8035 9.2995 22.7591 9.16279 22.5868 8.80988L22.451 8.53167L22.2729 8.30726C22.0197 7.98821 21.5223 7.58581 21.2562 7.48463C21.2162 7.46941 21.1434 7.43794 21.0944 7.41471C21.0454 7.39145 20.9326 7.35083 20.8436 7.32443L20.6818 7.27641L20.6748 4.41947L20.6677 1.5625H22.9491H25.2306V2.70044V3.83837L24.862 3.84806L24.4933 3.85774L24.3292 3.94087L24.1652 4.02402L24.0733 4.16344L23.9814 4.30287L23.9634 4.44268L23.9453 4.5825L23.9766 4.69885C23.9939 4.76287 24.0484 4.86895 24.0978 4.93463L24.1877 5.05404L24.3385 5.13055L24.4894 5.20706H24.86H25.2306V6.36163V7.5162H24.893H24.5554L24.4547 7.54639C24.3993 7.56297 24.305 7.60993 24.2451 7.65072L24.1361 7.72486L24.0504 7.86397L23.9647 8.00307L23.9659 8.2038L23.967 8.40456L24.0772 8.56269L24.1873 8.72083L24.3264 8.79319L24.4655 8.86552L24.848 8.87515L25.2306 8.88477V10.0341V11.1833L24.8341 11.1929L24.4377 11.2025L24.3138 11.272L24.1899 11.3416L24.0989 11.461C24.0489 11.5267 23.9938 11.633 23.9765 11.6972L23.9451 11.814L23.9616 11.9348C23.9941 12.1713 24.1608 12.4032 24.3574 12.4854L24.4498 12.524H24.8402H25.2306V13.6786V14.8331L24.9176 14.8334L24.6046 14.8337L24.4666 14.8756C24.2771 14.9331 24.1588 15.0188 24.0614 15.1692L23.9789 15.2967L23.9614 15.4239L23.944 15.5511L23.9781 15.6934L24.0123 15.8358L24.1554 15.9857L24.2986 16.1357L24.4099 16.1659L24.5211 16.1961L24.8759 16.1962L25.2306 16.1964V17.3509V18.5055H24.9012H24.5717L24.4409 18.5449C24.2673 18.5971 24.1417 18.6968 24.0448 18.8591L23.9653 18.9924L23.965 19.1871L23.9647 19.3819L24.0418 19.5131C24.1359 19.673 24.2671 19.7771 24.4409 19.8293L24.5717 19.8687H24.9002H25.2286L25.2365 21.2389L25.2445 22.6091L25.3045 22.7204C25.3677 22.8373 25.4668 22.9385 25.6062 23.0283L25.6896 23.0821L25.9122 23.0819L26.1348 23.0818L26.2461 23.0088C26.3957 22.9105 26.4681 22.828 26.5358 22.6787L26.5926 22.5535L26.5932 21.2111L26.5938 19.8687H26.9226H27.2514L27.396 19.8258L27.5405 19.7829L27.6419 19.6939L27.7433 19.6049L27.8082 19.4655L27.873 19.3262L27.8733 19.1875L27.8736 19.0488L27.7985 18.9003C27.7572 18.8187 27.6822 18.7158 27.6319 18.6716L27.5405 18.5914L27.396 18.5484L27.2514 18.5055H26.9226H26.5938V17.3509V16.1964L26.9624 16.1951L27.3311 16.1939L27.433 16.1575C27.5711 16.1082 27.6835 16.0125 27.7795 15.8625L27.8597 15.7373L27.8578 15.5287L27.856 15.32L27.7809 15.1913L27.7058 15.0627L27.5977 14.9877C27.5382 14.9465 27.4299 14.8949 27.3572 14.8729L27.2249 14.8331H26.9093H26.5938V13.6805V12.5279L27.0224 12.519L27.451 12.5101L27.5719 12.4226L27.6927 12.335L27.7743 12.2026L27.8558 12.0701L27.8682 11.9208L27.8806 11.7714L27.8319 11.644C27.8052 11.5739 27.7442 11.4721 27.6965 11.4177L27.6097 11.3189L27.4704 11.254L27.3311 11.1891L26.9624 11.1889L26.5938 11.1886V10.034V8.87943H26.9153H27.2369L27.3535 8.84975C27.4177 8.83344 27.52 8.78606 27.5809 8.7445L27.6915 8.66894L27.7756 8.53281L27.8597 8.39668L27.8591 8.19988L27.8586 8.00307L27.7793 7.86984C27.6869 7.71434 27.5696 7.61755 27.4022 7.55849L27.2824 7.5162H26.9381H26.5938V6.36163V5.20706L26.9624 5.20678L27.3311 5.2065L27.4704 5.14165L27.6097 5.07677L27.6965 4.97792C27.7442 4.92353 27.8053 4.82129 27.8323 4.75071L27.8813 4.62234L27.8658 4.47172L27.8502 4.3211L27.7554 4.17287L27.6606 4.02466L27.4958 3.9412L27.3311 3.85774L26.9624 3.84806L26.5938 3.83837V2.28758V0.736749L26.5093 0.567597L26.4248 0.398445L26.2804 0.305829L26.136 0.213185L13.7551 0.206202L1.37406 0.199219L1.25429 0.258533ZM6.92436 2.70317V3.84383H4.57348H2.2226V2.70317V1.5625H4.57348H6.92436V2.70317ZM6.91771 6.36859L6.92497 7.5162H4.57379H2.2226V6.36146V5.20675L4.56653 5.21385L6.91045 5.22097L6.91771 6.36859ZM13.736 8.57382L13.9402 8.6003L14.1116 8.67587C14.5664 8.87632 14.8857 9.25532 15.0087 9.74063L15.0542 9.92022L15.0423 10.1719L15.0304 10.4235L14.9645 10.6043C14.8779 10.8424 14.7252 11.0661 14.5317 11.2385L14.3746 11.3786L14.1636 11.4801L13.9526 11.5817L13.7353 11.6134L13.5179 11.645L13.2884 11.6121L13.0589 11.5791L12.826 11.4643L12.5931 11.3495L12.4226 11.1765L12.2521 11.0035L12.1485 10.7969L12.045 10.5904L11.9967 10.3309L11.9483 10.0713L11.9967 9.8301L12.0451 9.58887L12.1339 9.40803L12.2226 9.22719L12.4357 9.0115L12.6489 8.7958L12.8633 8.69812L13.0776 8.60044L13.263 8.57654C13.5159 8.54391 13.5062 8.54397 13.736 8.57382ZM20.2176 8.5744L20.4475 8.60322L20.6484 8.6986L20.8494 8.79399L21.0102 8.93738C21.0987 9.01626 21.2188 9.15127 21.277 9.23743L21.3829 9.39412L21.4615 9.6306L21.5401 9.86708L21.5382 10.1175L21.5364 10.3679L21.4664 10.5669C21.2546 11.1692 20.7461 11.5718 20.1315 11.6237L19.9292 11.6408L19.7309 11.6074L19.5327 11.574L19.3627 11.4936C18.9345 11.291 18.6486 10.9576 18.5269 10.5186L18.4701 10.3133V10.0896V9.86596L18.5269 9.6607C18.6021 9.38945 18.6933 9.24008 18.9287 9.00226L19.1239 8.80512L19.3412 8.70285L19.5585 8.60058L19.7446 8.5766C19.8469 8.56341 19.9435 8.55103 19.9592 8.54908C19.9749 8.54717 20.0912 8.55854 20.2176 8.5744ZM6.91771 10.027L6.91045 11.1747L4.56653 11.1818L2.2226 11.1889V10.0342V8.87943H4.57379H6.92497L6.91771 10.027ZM6.91771 13.6855L6.92497 14.8331H4.57379H2.2226V13.6784V12.5237L4.56653 12.5308L6.91045 12.5379L6.91771 13.6855ZM6.91771 17.344L6.91045 18.4916L4.56653 18.4987L2.2226 18.5058V17.3511V16.1964H4.57379H6.92497L6.91771 17.344Z" fill="#FAF2E7" stroke="#FAF2E7" stroke-width="2.62403" mask="url(#path-1-inside-1_37_995)"/>
</svg>
