<svg width="26" height="23" viewBox="0 0 26 23" fill="none" xmlns="http://www.w3.org/2000/svg">
<mask id="path-1-inside-1_37_1000" fill="white">
<path d="M12.9916 22.3791C12.8311 22.3791 12.7009 22.249 12.7009 22.0884V12.785C12.7009 12.7118 12.6391 12.65 12.566 12.65H2.77605C2.70292 12.65 2.64106 12.7118 2.64106 12.785V22.0884C2.64106 22.249 2.5109 22.3791 2.3504 22.3791C2.1899 22.3791 2.05974 22.249 2.05974 22.0884V12.785C2.05974 12.39 2.38104 12.0687 2.77605 12.0687H12.566C12.9609 12.0687 13.2823 12.39 13.2823 12.785V22.0884C13.2823 22.249 13.1521 22.3791 12.9916 22.3791Z"/>
<path d="M11.7451 12.65C11.5846 12.65 11.4544 12.5199 11.4544 12.3594V6.3261H3.8876V12.3594C3.8876 12.5199 3.75744 12.65 3.59693 12.65C3.43643 12.65 3.30627 12.5199 3.30627 12.3594V6.03544C3.30627 5.87493 3.43643 5.74478 3.59693 5.74478H11.7451C11.9056 5.74478 12.0357 5.87493 12.0357 6.03544V12.3594C12.0357 12.5199 11.9056 12.65 11.7451 12.65Z"/>
<path d="M3.5967 6.32616C3.53996 6.32616 3.48265 6.30959 3.4323 6.275C3.30005 6.18408 3.26645 6.00312 3.35737 5.87087L6.81573 0.838283C7.03274 0.522449 7.3445 0.341309 7.67097 0.341309C7.99744 0.341309 8.30921 0.522449 8.52622 0.838283L11.9846 5.87087C12.0755 6.00317 12.0419 6.18408 11.9096 6.275C11.7774 6.36592 11.5964 6.33244 11.5055 6.20007L8.04715 1.16749C7.93861 1.0096 7.80503 0.922633 7.67097 0.922633C7.53692 0.922633 7.40333 1.0096 7.2948 1.16749L3.83644 6.20007C3.78017 6.28204 3.68919 6.32616 3.5967 6.32616Z"/>
<path d="M10.0729 12.65C9.91238 12.65 9.78222 12.5199 9.78222 12.3594V9.56181C9.78222 8.39771 8.83513 7.45061 7.67103 7.45061C6.50693 7.45061 5.55983 8.39771 5.55983 9.56181V12.3594C5.55983 12.5199 5.42968 12.65 5.26917 12.65C5.10867 12.65 4.97851 12.5199 4.97851 12.3594V9.56181C4.97851 8.07717 6.18639 6.86929 7.67103 6.86929C9.15573 6.86929 10.3635 8.07717 10.3635 9.56181V12.3594C10.3635 12.5199 10.2334 12.65 10.0729 12.65Z"/>
<path d="M10.0729 22.3791C9.91238 22.3791 9.78222 22.249 9.78222 22.0884V12.65H5.55983V22.0884C5.55983 22.249 5.42968 22.3791 5.26917 22.3791C5.10867 22.3791 4.97851 22.249 4.97851 22.0884V12.3594C4.97851 12.1988 5.10867 12.0687 5.26917 12.0687H10.0729C10.2334 12.0687 10.3635 12.1988 10.3635 12.3594V22.0884C10.3635 22.249 10.2334 22.3791 10.0729 22.3791Z"/>
<path d="M18.1527 22.3534C18.0359 22.3534 17.9258 22.2826 17.8813 22.1671L14.2261 12.6625H11.7451C11.5846 12.6625 11.4544 12.5324 11.4544 12.3718V10.426C11.4544 10.2655 11.5846 10.1353 11.7451 10.1353H15.617C15.7373 10.1353 15.8451 10.2094 15.8883 10.3217L19.5435 19.8263H22.993C23.1536 19.8263 23.2837 19.9564 23.2837 20.1169V22.0628C23.2837 22.2233 23.1536 22.3534 22.993 22.3534C22.8324 22.3534 22.7023 22.2233 22.7023 22.0628V20.4076H19.344C19.2237 20.4076 19.1159 20.3335 19.0727 20.2213L15.4174 10.7167H12.0358V12.0812H14.4258C14.5461 12.0812 14.6539 12.1552 14.6971 12.2675L18.4239 21.9584C18.4815 22.1082 18.4068 22.2764 18.2569 22.334C18.2226 22.3472 18.1874 22.3534 18.1527 22.3534Z"/>
<path d="M25.5601 22.3791H0.446912C0.286409 22.3791 0.15625 22.249 0.15625 22.0884C0.15625 21.9279 0.286409 21.7978 0.446912 21.7978H25.5601C25.7207 21.7978 25.8508 21.9279 25.8508 22.0884C25.8508 22.249 25.7206 22.3791 25.5601 22.3791Z"/>
<path d="M10.0729 14.7782H5.26917C5.10867 14.7782 4.97851 14.6481 4.97851 14.4875C4.97851 14.327 5.10867 14.1969 5.26917 14.1969H10.0729C10.2334 14.1969 10.3635 14.327 10.3635 14.4875C10.3635 14.6481 10.2334 14.7782 10.0729 14.7782Z"/>
<path d="M10.0729 17.5145H5.26917C5.10867 17.5145 4.97851 17.3844 4.97851 17.2238C4.97851 17.0633 5.10867 16.9332 5.26917 16.9332H10.0729C10.2334 16.9332 10.3635 17.0633 10.3635 17.2238C10.3635 17.3844 10.2334 17.5145 10.0729 17.5145Z"/>
<path d="M10.0729 20.2509H5.26917C5.10867 20.2509 4.97851 20.1208 4.97851 19.9602C4.97851 19.7996 5.10867 19.6695 5.26917 19.6695H10.0729C10.2334 19.6695 10.3635 19.7996 10.3635 19.9602C10.3635 20.1208 10.2334 20.2509 10.0729 20.2509Z"/>
<path d="M7.67103 5.35267C6.90723 5.35267 6.28579 4.7313 6.28579 3.96749C6.28579 3.20369 6.90717 2.58231 7.67103 2.58231C8.43483 2.58231 9.05621 3.20369 9.05621 3.96749C9.05621 4.7313 8.43483 5.35267 7.67103 5.35267ZM7.67103 3.16364C7.22777 3.16364 6.86712 3.52423 6.86712 3.96749C6.86712 4.41075 7.22777 4.77135 7.67103 4.77135C8.11429 4.77135 8.47488 4.41075 8.47488 3.96749C8.47488 3.52423 8.11429 3.16364 7.67103 3.16364Z"/>
<path d="M21.1164 8.34748H15.2875C14.354 8.34748 13.5946 7.58804 13.5946 6.65455C13.5946 5.75507 14.2998 5.01719 15.1863 4.96464C15.3232 4.16776 16.0193 3.5594 16.8547 3.5594C16.9562 3.5594 17.0563 3.56818 17.1544 3.58574C17.2801 2.38298 18.3 1.44228 19.5355 1.44228C20.8555 1.44228 21.9295 2.51622 21.9295 3.83629C21.9295 4.26118 21.8176 4.67322 21.6085 5.03457C22.3027 5.24583 22.8094 5.89214 22.8094 6.65461C22.8093 7.58804 22.0499 8.34748 21.1164 8.34748ZM15.2875 5.54294C14.6745 5.54294 14.1759 6.0416 14.1759 6.65455C14.1759 7.2675 14.6745 7.76616 15.2875 7.76616H21.1165C21.7294 7.76616 22.228 7.2675 22.228 6.65455C22.228 6.0416 21.7294 5.54294 21.1165 5.54294L21.0962 5.54317C20.9791 5.54509 20.8738 5.47841 20.8258 5.37261C20.7779 5.26681 20.7975 5.14264 20.8757 5.05678C21.1804 4.72252 21.3482 4.28902 21.3482 3.83623C21.3482 2.8367 20.535 2.02354 19.5355 2.02354C18.5359 2.02354 17.7227 2.8367 17.7227 3.83623C17.7227 3.875 17.724 3.91564 17.7268 3.95703C17.7336 4.05917 17.6861 4.1573 17.6019 4.21549C17.5177 4.27362 17.4091 4.28321 17.316 4.2406C17.1709 4.17427 17.0157 4.14067 16.8546 4.14067C16.2417 4.14067 15.7431 4.63933 15.7431 5.25228C15.7445 5.3361 15.7098 5.41889 15.6475 5.47516C15.5854 5.53143 15.5018 5.56026 15.4186 5.55067C15.375 5.54556 15.3308 5.54294 15.2875 5.54294Z"/>
</mask>
<path d="M12.9916 22.3791C12.8311 22.3791 12.7009 22.249 12.7009 22.0884V12.785C12.7009 12.7118 12.6391 12.65 12.566 12.65H2.77605C2.70292 12.65 2.64106 12.7118 2.64106 12.785V22.0884C2.64106 22.249 2.5109 22.3791 2.3504 22.3791C2.1899 22.3791 2.05974 22.249 2.05974 22.0884V12.785C2.05974 12.39 2.38104 12.0687 2.77605 12.0687H12.566C12.9609 12.0687 13.2823 12.39 13.2823 12.785V22.0884C13.2823 22.249 13.1521 22.3791 12.9916 22.3791Z" fill="#FAF2E7"/>
<path d="M11.7451 12.65C11.5846 12.65 11.4544 12.5199 11.4544 12.3594V6.3261H3.8876V12.3594C3.8876 12.5199 3.75744 12.65 3.59693 12.65C3.43643 12.65 3.30627 12.5199 3.30627 12.3594V6.03544C3.30627 5.87493 3.43643 5.74478 3.59693 5.74478H11.7451C11.9056 5.74478 12.0357 5.87493 12.0357 6.03544V12.3594C12.0357 12.5199 11.9056 12.65 11.7451 12.65Z" fill="#FAF2E7"/>
<path d="M3.5967 6.32616C3.53996 6.32616 3.48265 6.30959 3.4323 6.275C3.30005 6.18408 3.26645 6.00312 3.35737 5.87087L6.81573 0.838283C7.03274 0.522449 7.3445 0.341309 7.67097 0.341309C7.99744 0.341309 8.30921 0.522449 8.52622 0.838283L11.9846 5.87087C12.0755 6.00317 12.0419 6.18408 11.9096 6.275C11.7774 6.36592 11.5964 6.33244 11.5055 6.20007L8.04715 1.16749C7.93861 1.0096 7.80503 0.922633 7.67097 0.922633C7.53692 0.922633 7.40333 1.0096 7.2948 1.16749L3.83644 6.20007C3.78017 6.28204 3.68919 6.32616 3.5967 6.32616Z" fill="#FAF2E7"/>
<path d="M10.0729 12.65C9.91238 12.65 9.78222 12.5199 9.78222 12.3594V9.56181C9.78222 8.39771 8.83513 7.45061 7.67103 7.45061C6.50693 7.45061 5.55983 8.39771 5.55983 9.56181V12.3594C5.55983 12.5199 5.42968 12.65 5.26917 12.65C5.10867 12.65 4.97851 12.5199 4.97851 12.3594V9.56181C4.97851 8.07717 6.18639 6.86929 7.67103 6.86929C9.15573 6.86929 10.3635 8.07717 10.3635 9.56181V12.3594C10.3635 12.5199 10.2334 12.65 10.0729 12.65Z" fill="#FAF2E7"/>
<path d="M10.0729 22.3791C9.91238 22.3791 9.78222 22.249 9.78222 22.0884V12.65H5.55983V22.0884C5.55983 22.249 5.42968 22.3791 5.26917 22.3791C5.10867 22.3791 4.97851 22.249 4.97851 22.0884V12.3594C4.97851 12.1988 5.10867 12.0687 5.26917 12.0687H10.0729C10.2334 12.0687 10.3635 12.1988 10.3635 12.3594V22.0884C10.3635 22.249 10.2334 22.3791 10.0729 22.3791Z" fill="#FAF2E7"/>
<path d="M18.1527 22.3534C18.0359 22.3534 17.9258 22.2826 17.8813 22.1671L14.2261 12.6625H11.7451C11.5846 12.6625 11.4544 12.5324 11.4544 12.3718V10.426C11.4544 10.2655 11.5846 10.1353 11.7451 10.1353H15.617C15.7373 10.1353 15.8451 10.2094 15.8883 10.3217L19.5435 19.8263H22.993C23.1536 19.8263 23.2837 19.9564 23.2837 20.1169V22.0628C23.2837 22.2233 23.1536 22.3534 22.993 22.3534C22.8324 22.3534 22.7023 22.2233 22.7023 22.0628V20.4076H19.344C19.2237 20.4076 19.1159 20.3335 19.0727 20.2213L15.4174 10.7167H12.0358V12.0812H14.4258C14.5461 12.0812 14.6539 12.1552 14.6971 12.2675L18.4239 21.9584C18.4815 22.1082 18.4068 22.2764 18.2569 22.334C18.2226 22.3472 18.1874 22.3534 18.1527 22.3534Z" fill="#FAF2E7"/>
<path d="M25.5601 22.3791H0.446912C0.286409 22.3791 0.15625 22.249 0.15625 22.0884C0.15625 21.9279 0.286409 21.7978 0.446912 21.7978H25.5601C25.7207 21.7978 25.8508 21.9279 25.8508 22.0884C25.8508 22.249 25.7206 22.3791 25.5601 22.3791Z" fill="#FAF2E7"/>
<path d="M10.0729 14.7782H5.26917C5.10867 14.7782 4.97851 14.6481 4.97851 14.4875C4.97851 14.327 5.10867 14.1969 5.26917 14.1969H10.0729C10.2334 14.1969 10.3635 14.327 10.3635 14.4875C10.3635 14.6481 10.2334 14.7782 10.0729 14.7782Z" fill="#FAF2E7"/>
<path d="M10.0729 17.5145H5.26917C5.10867 17.5145 4.97851 17.3844 4.97851 17.2238C4.97851 17.0633 5.10867 16.9332 5.26917 16.9332H10.0729C10.2334 16.9332 10.3635 17.0633 10.3635 17.2238C10.3635 17.3844 10.2334 17.5145 10.0729 17.5145Z" fill="#FAF2E7"/>
<path d="M10.0729 20.2509H5.26917C5.10867 20.2509 4.97851 20.1208 4.97851 19.9602C4.97851 19.7996 5.10867 19.6695 5.26917 19.6695H10.0729C10.2334 19.6695 10.3635 19.7996 10.3635 19.9602C10.3635 20.1208 10.2334 20.2509 10.0729 20.2509Z" fill="#FAF2E7"/>
<path d="M7.67103 5.35267C6.90723 5.35267 6.28579 4.7313 6.28579 3.96749C6.28579 3.20369 6.90717 2.58231 7.67103 2.58231C8.43483 2.58231 9.05621 3.20369 9.05621 3.96749C9.05621 4.7313 8.43483 5.35267 7.67103 5.35267ZM7.67103 3.16364C7.22777 3.16364 6.86712 3.52423 6.86712 3.96749C6.86712 4.41075 7.22777 4.77135 7.67103 4.77135C8.11429 4.77135 8.47488 4.41075 8.47488 3.96749C8.47488 3.52423 8.11429 3.16364 7.67103 3.16364Z" fill="#FAF2E7"/>
<path d="M21.1164 8.34748H15.2875C14.354 8.34748 13.5946 7.58804 13.5946 6.65455C13.5946 5.75507 14.2998 5.01719 15.1863 4.96464C15.3232 4.16776 16.0193 3.5594 16.8547 3.5594C16.9562 3.5594 17.0563 3.56818 17.1544 3.58574C17.2801 2.38298 18.3 1.44228 19.5355 1.44228C20.8555 1.44228 21.9295 2.51622 21.9295 3.83629C21.9295 4.26118 21.8176 4.67322 21.6085 5.03457C22.3027 5.24583 22.8094 5.89214 22.8094 6.65461C22.8093 7.58804 22.0499 8.34748 21.1164 8.34748ZM15.2875 5.54294C14.6745 5.54294 14.1759 6.0416 14.1759 6.65455C14.1759 7.2675 14.6745 7.76616 15.2875 7.76616H21.1165C21.7294 7.76616 22.228 7.2675 22.228 6.65455C22.228 6.0416 21.7294 5.54294 21.1165 5.54294L21.0962 5.54317C20.9791 5.54509 20.8738 5.47841 20.8258 5.37261C20.7779 5.26681 20.7975 5.14264 20.8757 5.05678C21.1804 4.72252 21.3482 4.28902 21.3482 3.83623C21.3482 2.8367 20.535 2.02354 19.5355 2.02354C18.5359 2.02354 17.7227 2.8367 17.7227 3.83623C17.7227 3.875 17.724 3.91564 17.7268 3.95703C17.7336 4.05917 17.6861 4.1573 17.6019 4.21549C17.5177 4.27362 17.4091 4.28321 17.316 4.2406C17.1709 4.17427 17.0157 4.14067 16.8546 4.14067C16.2417 4.14067 15.7431 4.63933 15.7431 5.25228C15.7445 5.3361 15.7098 5.41889 15.6475 5.47516C15.5854 5.53143 15.5018 5.56026 15.4186 5.55067C15.375 5.54556 15.3308 5.54294 15.2875 5.54294Z" fill="#FAF2E7"/>
<path d="M13.2823 22.0884H12.6151V22.0887L13.2823 22.0884ZM11.4544 6.3261H12.1216V5.65892H11.4544V6.3261ZM3.8876 6.3261V5.65892H3.22041V6.3261H3.8876ZM3.4323 6.275L3.05433 6.8248L3.05449 6.8249L3.4323 6.275ZM3.35737 5.87087L3.90717 6.24883L3.90724 6.24873L3.35737 5.87087ZM6.81573 0.838283L7.36559 1.21615L7.36562 1.21611L6.81573 0.838283ZM8.52622 0.838283L7.97632 1.21611L7.97635 1.21615L8.52622 0.838283ZM11.9846 5.87087L12.5344 5.49301L12.5344 5.493L11.9846 5.87087ZM11.9096 6.275L11.5318 5.72513L11.5317 5.72521L11.9096 6.275ZM11.5055 6.20007L12.0556 5.82249L12.0554 5.8222L11.5055 6.20007ZM8.04715 1.16749L8.59701 0.789621L8.59696 0.789541L8.04715 1.16749ZM7.2948 1.16749L6.74498 0.789541L6.74493 0.789621L7.2948 1.16749ZM3.83644 6.20007L3.28657 5.8222L3.2864 5.82245L3.83644 6.20007ZM9.78222 12.65H10.4494V11.9829H9.78222V12.65ZM5.55983 12.65V11.9829H4.89265V12.65H5.55983ZM17.8813 22.1671L17.2586 22.4066L17.2587 22.4068L17.8813 22.1671ZM14.2261 12.6625L14.8488 12.423L14.6843 11.9953H14.2261V12.6625ZM15.8883 10.3217L16.511 10.0822L16.511 10.0821L15.8883 10.3217ZM19.5435 19.8263L18.9208 20.0657L19.0853 20.4934H19.5435V19.8263ZM22.7023 20.4076H23.3695V19.7404H22.7023V20.4076ZM19.0727 20.2213L18.4499 20.4607L18.45 20.4609L19.0727 20.2213ZM15.4174 10.7167L16.0401 10.4772L15.8756 10.0495H15.4174V10.7167ZM12.0358 10.7167V10.0495H11.3686V10.7167H12.0358ZM12.0358 12.0812H11.3686V12.7483H12.0358V12.0812ZM14.6971 12.2675L15.3198 12.028L15.3198 12.0279L14.6971 12.2675ZM18.4239 21.9584L19.0466 21.7189L19.0466 21.7189L18.4239 21.9584ZM18.2569 22.334L18.4956 22.9571L18.4964 22.9568L18.2569 22.334ZM15.1863 4.96464L15.2258 5.63066L15.7542 5.59933L15.8438 5.07765L15.1863 4.96464ZM17.1544 3.58574L17.0369 4.24249L17.7434 4.36889L17.818 3.65508L17.1544 3.58574ZM21.6085 5.03457L21.031 4.70034L20.6098 5.42809L21.4142 5.67286L21.6085 5.03457ZM22.8094 6.65461L23.4765 6.65465V6.65461H22.8094ZM21.1165 5.54294V4.87571L21.1088 4.8758L21.1165 5.54294ZM21.0962 5.54317L21.0886 4.87602L21.0853 4.87608L21.0962 5.54317ZM20.8757 5.05678L20.3826 4.60734L20.3824 4.60757L20.8757 5.05678ZM17.7268 3.95703L18.3926 3.91308L18.3925 3.91215L17.7268 3.95703ZM17.6019 4.21549L17.981 4.76448L17.9811 4.76442L17.6019 4.21549ZM17.316 4.2406L17.5936 3.63391L17.5934 3.63381L17.316 4.2406ZM15.7431 5.25228H15.0758L15.076 5.26384L15.7431 5.25228ZM15.6475 5.47516L15.2001 4.98019L15.1997 4.9806L15.6475 5.47516ZM15.4186 5.55067L15.3407 6.2133L15.3422 6.21347L15.4186 5.55067ZM12.9916 22.3791V21.7119C13.1995 21.7119 13.3681 21.8804 13.3681 22.0884H12.7009H12.0338C12.0338 22.6175 12.4627 23.0463 12.9916 23.0463V22.3791ZM12.7009 22.0884H13.3681V12.785H12.7009H12.0338V22.0884H12.7009ZM12.7009 12.785H13.3681C13.3681 12.3432 13.0074 11.9829 12.566 11.9829V12.65V13.3172C12.2709 13.3172 12.0338 13.0805 12.0338 12.785H12.7009ZM12.566 12.65V11.9829H2.77605V12.65V13.3172H12.566V12.65ZM2.77605 12.65V11.9829C2.33481 11.9829 1.97388 12.343 1.97388 12.785H2.64106H3.30825C3.30825 13.0807 3.07102 13.3172 2.77605 13.3172V12.65ZM2.64106 12.785H1.97388V22.0884H2.64106H3.30825V12.785H2.64106ZM2.64106 22.0884H1.97388C1.97388 21.8804 2.14251 21.7119 2.3504 21.7119V22.3791V23.0463C2.8793 23.0463 3.30825 22.6175 3.30825 22.0884H2.64106ZM2.3504 22.3791V21.7119C2.55829 21.7119 2.72692 21.8804 2.72692 22.0884H2.05974H1.39255C1.39255 22.6175 1.82151 23.0463 2.3504 23.0463V22.3791ZM2.05974 22.0884H2.72692V12.785H2.05974H1.39255V22.0884H2.05974ZM2.05974 12.785H2.72692C2.72692 12.7585 2.74948 12.7359 2.77605 12.7359V12.0687V11.4015C2.0126 11.4015 1.39255 12.0215 1.39255 12.785H2.05974ZM2.77605 12.0687V12.7359H12.566V12.0687V11.4015H2.77605V12.0687ZM12.566 12.0687V12.7359C12.5925 12.7359 12.6151 12.7586 12.6151 12.785H13.2823H13.9494C13.9494 12.0215 13.3293 11.4015 12.566 11.4015V12.0687ZM13.2823 12.785H12.6151V22.0884H13.2823H13.9494V12.785H13.2823ZM13.2823 22.0884L12.6151 22.0887C12.615 21.8803 12.7839 21.7119 12.9916 21.7119V22.3791V23.0463C13.5203 23.0463 13.9496 22.6177 13.9494 22.0882L13.2823 22.0884ZM11.7451 12.65V11.9829C11.953 11.9829 12.1216 12.1514 12.1216 12.3594H11.4544H10.7872C10.7872 12.8885 11.2162 13.3172 11.7451 13.3172V12.65ZM11.4544 12.3594H12.1216V6.3261H11.4544H10.7872V12.3594H11.4544ZM11.4544 6.3261V5.65892H3.8876V6.3261V6.99329H11.4544V6.3261ZM3.8876 6.3261H3.22041V12.3594H3.8876H4.55478V6.3261H3.8876ZM3.8876 12.3594H3.22041C3.22041 12.1514 3.38905 11.9829 3.59693 11.9829V12.65V13.3172C4.12583 13.3172 4.55478 12.8885 4.55478 12.3594H3.8876ZM3.59693 12.65V11.9829C3.80482 11.9829 3.97346 12.1514 3.97346 12.3594H3.30627H2.63909C2.63909 12.8885 3.06804 13.3172 3.59693 13.3172V12.65ZM3.30627 12.3594H3.97346V6.03544H3.30627H2.63909V12.3594H3.30627ZM3.30627 6.03544H3.97346C3.97346 6.24341 3.80491 6.41196 3.59693 6.41196V5.74478V5.07759C3.06796 5.07759 2.63909 5.50646 2.63909 6.03544H3.30627ZM3.59693 5.74478V6.41196H11.7451V5.74478V5.07759H3.59693V5.74478ZM11.7451 5.74478V6.41196C11.5371 6.41196 11.3685 6.24341 11.3685 6.03544H12.0357H12.7029C12.7029 5.50646 12.274 5.07759 11.7451 5.07759V5.74478ZM12.0357 6.03544H11.3685V12.3594H12.0357H12.7029V6.03544H12.0357ZM12.0357 12.3594H11.3685C11.3685 12.1515 11.5371 11.9829 11.7451 11.9829V12.65V13.3172C12.2742 13.3172 12.7029 12.8883 12.7029 12.3594H12.0357ZM3.5967 6.32616V5.65897C3.6706 5.65897 3.74581 5.68092 3.81012 5.7251L3.4323 6.275L3.05449 6.8249C3.21948 6.93826 3.40933 6.99334 3.5967 6.99334V6.32616ZM3.4323 6.275L3.81027 5.72521C3.98138 5.84283 4.02519 6.07715 3.90717 6.24883L3.35737 5.87087L2.80757 5.4929C2.50771 5.92908 2.61873 6.52533 3.05433 6.8248L3.4323 6.275ZM3.35737 5.87087L3.90724 6.24873L7.36559 1.21615L6.81573 0.838283L6.26586 0.460417L2.8075 5.493L3.35737 5.87087ZM6.81573 0.838283L7.36562 1.21611C7.48302 1.04524 7.60478 1.00849 7.67097 1.00849V0.341309V-0.325877C7.08422 -0.325877 6.58245 -0.000341922 6.26583 0.460453L6.81573 0.838283ZM7.67097 0.341309V1.00849C7.73716 1.00849 7.85892 1.04524 7.97632 1.21611L8.52622 0.838283L9.07611 0.460453C8.7595 -0.000341386 8.25773 -0.325877 7.67097 -0.325877V0.341309ZM8.52622 0.838283L7.97635 1.21615L11.4347 6.24873L11.9846 5.87087L12.5344 5.493L9.07608 0.460417L8.52622 0.838283ZM11.9846 5.87087L11.4347 6.24872C11.3169 6.07735 11.3604 5.8429 11.5318 5.72513L11.9096 6.275L12.2875 6.82488C12.7235 6.52527 12.834 5.929 12.5344 5.49301L11.9846 5.87087ZM11.9096 6.275L11.5317 5.72521C11.7029 5.60748 11.9376 5.65062 12.0556 5.82249L11.5055 6.20007L10.9554 6.57765C11.2551 7.01425 11.8519 7.12437 12.2876 6.8248L11.9096 6.275ZM11.5055 6.20007L12.0554 5.8222L8.59701 0.789621L8.04715 1.16749L7.49728 1.54535L10.9556 6.57793L11.5055 6.20007ZM8.04715 1.16749L8.59696 0.789541C8.42134 0.534068 8.10962 0.255447 7.67097 0.255447V0.922633V1.58982C7.58893 1.58982 7.53132 1.56237 7.50466 1.54501C7.4804 1.52922 7.48149 1.52238 7.49733 1.54543L8.04715 1.16749ZM7.67097 0.922633V0.255447C7.23233 0.255447 6.9206 0.534068 6.74498 0.789541L7.2948 1.16749L7.84461 1.54543C7.86046 1.52238 7.86154 1.52922 7.83729 1.54501C7.81062 1.56237 7.75301 1.58982 7.67097 1.58982V0.922633ZM7.2948 1.16749L6.74493 0.789621L3.28657 5.8222L3.83644 6.20007L4.38631 6.57793L7.84466 1.54535L7.2948 1.16749ZM3.83644 6.20007L3.2864 5.82245C3.35979 5.71555 3.47873 5.65897 3.5967 5.65897V6.32616V6.99334C3.89965 6.99334 4.20054 6.84852 4.38648 6.57768L3.83644 6.20007ZM10.0729 12.65V11.9829C10.2808 11.9829 10.4494 12.1514 10.4494 12.3594H9.78222H9.11504C9.11504 12.8885 9.54399 13.3172 10.0729 13.3172V12.65ZM9.78222 12.3594H10.4494V9.56181H9.78222H9.11504V12.3594H9.78222ZM9.78222 9.56181H10.4494C10.4494 8.02923 9.20361 6.78343 7.67103 6.78343V7.45061V8.1178C8.46665 8.1178 9.11504 8.76618 9.11504 9.56181H9.78222ZM7.67103 7.45061V6.78343C6.13845 6.78343 4.89265 8.02923 4.89265 9.56181H5.55983H6.22702C6.22702 8.76618 6.8754 8.1178 7.67103 8.1178V7.45061ZM5.55983 9.56181H4.89265V12.3594H5.55983H6.22702V9.56181H5.55983ZM5.55983 12.3594H4.89265C4.89265 12.1514 5.06129 11.9829 5.26917 11.9829V12.65V13.3172C5.79806 13.3172 6.22702 12.8885 6.22702 12.3594H5.55983ZM5.26917 12.65V11.9829C5.47706 11.9829 5.6457 12.1514 5.6457 12.3594H4.97851H4.31132C4.31132 12.8885 4.74028 13.3172 5.26917 13.3172V12.65ZM4.97851 12.3594H5.6457V9.56181H4.97851H4.31132V12.3594H4.97851ZM4.97851 9.56181H5.6457C5.6457 8.44564 6.55486 7.53648 7.67103 7.53648V6.86929V6.2021C5.81791 6.2021 4.31132 7.70869 4.31132 9.56181H4.97851ZM7.67103 6.86929V7.53648C8.78725 7.53648 9.69636 8.44563 9.69636 9.56181H10.3635H11.0307C11.0307 7.7087 9.52422 6.2021 7.67103 6.2021V6.86929ZM10.3635 9.56181H9.69636V12.3594H10.3635H11.0307V9.56181H10.3635ZM10.3635 12.3594H9.69636C9.69636 12.1514 9.86491 11.9829 10.0729 11.9829V12.65V13.3172C10.6019 13.3172 11.0307 12.8884 11.0307 12.3594H10.3635ZM10.0729 22.3791V21.7119C10.2808 21.7119 10.4494 21.8804 10.4494 22.0884H9.78222H9.11504C9.11504 22.6175 9.54399 23.0463 10.0729 23.0463V22.3791ZM9.78222 22.0884H10.4494V12.65H9.78222H9.11504V22.0884H9.78222ZM9.78222 12.65V11.9829H5.55983V12.65V13.3172H9.78222V12.65ZM5.55983 12.65H4.89265V22.0884H5.55983H6.22702V12.65H5.55983ZM5.55983 22.0884H4.89265C4.89265 21.8804 5.06128 21.7119 5.26917 21.7119V22.3791V23.0463C5.79807 23.0463 6.22702 22.6175 6.22702 22.0884H5.55983ZM5.26917 22.3791V21.7119C5.47706 21.7119 5.6457 21.8804 5.6457 22.0884H4.97851H4.31132C4.31132 22.6175 4.74028 23.0463 5.26917 23.0463V22.3791ZM4.97851 22.0884H5.6457V12.3594H4.97851H4.31132V22.0884H4.97851ZM4.97851 12.3594H5.6457C5.6457 12.5674 5.47706 12.7359 5.26917 12.7359V12.0687V11.4015C4.74028 11.4015 4.31132 11.8302 4.31132 12.3594H4.97851ZM5.26917 12.0687V12.7359H10.0729V12.0687V11.4015H5.26917V12.0687ZM10.0729 12.0687V12.7359C9.865 12.7359 9.69636 12.5674 9.69636 12.3594H10.3635H11.0307C11.0307 11.8302 10.6018 11.4015 10.0729 11.4015V12.0687ZM10.3635 12.3594H9.69636V22.0884H10.3635H11.0307V12.3594H10.3635ZM10.3635 22.0884H9.69636C9.69636 21.8804 9.865 21.7119 10.0729 21.7119V22.3791V23.0463C10.6018 23.0463 11.0307 22.6175 11.0307 22.0884H10.3635ZM18.1527 22.3534V21.6863C18.3028 21.6863 18.446 21.777 18.5039 21.9274L17.8813 22.1671L17.2587 22.4068C17.4055 22.7882 17.7689 23.0206 18.1527 23.0206V22.3534ZM17.8813 22.1671L18.504 21.9276L14.8488 12.423L14.2261 12.6625L13.6034 12.902L17.2586 22.4066L17.8813 22.1671ZM14.2261 12.6625V11.9953H11.7451V12.6625V13.3297H14.2261V12.6625ZM11.7451 12.6625V11.9953C11.953 11.9953 12.1216 12.1638 12.1216 12.3718H11.4544H10.7872C10.7872 12.9009 11.2162 13.3297 11.7451 13.3297V12.6625ZM11.4544 12.3718H12.1216V10.426H11.4544H10.7872V12.3718H11.4544ZM11.4544 10.426H12.1216C12.1216 10.634 11.953 10.8025 11.7451 10.8025V10.1353V9.46816C11.2161 9.46816 10.7872 9.89703 10.7872 10.426H11.4544ZM11.7451 10.1353V10.8025H15.617V10.1353V9.46816H11.7451V10.1353ZM15.617 10.1353V10.8025C15.4612 10.8025 15.3215 10.7066 15.2656 10.5613L15.8883 10.3217L16.511 10.0821C16.3687 9.71224 16.0133 9.46816 15.617 9.46816V10.1353ZM15.8883 10.3217L15.2656 10.5611L18.9208 20.0657L19.5435 19.8263L20.1663 19.5868L16.511 10.0822L15.8883 10.3217ZM19.5435 19.8263V20.4934H22.993V19.8263V19.1591H19.5435V19.8263ZM22.993 19.8263V20.4934C22.7851 20.4934 22.6165 20.3248 22.6165 20.1169H23.2837H23.9508C23.9508 19.5879 23.522 19.1591 22.993 19.1591V19.8263ZM23.2837 20.1169H22.6165V22.0628H23.2837H23.9508V20.1169H23.2837ZM23.2837 22.0628H22.6165C22.6165 21.8549 22.7851 21.6863 22.993 21.6863V22.3534V23.0206C23.522 23.0206 23.9508 22.5918 23.9508 22.0628H23.2837ZM22.993 22.3534V21.6863C23.2009 21.6863 23.3695 21.8549 23.3695 22.0628H22.7023H22.0351C22.0351 22.5918 22.464 23.0206 22.993 23.0206V22.3534ZM22.7023 22.0628H23.3695V20.4076H22.7023H22.0351V22.0628H22.7023ZM22.7023 20.4076V19.7404H19.344V20.4076V21.0748H22.7023V20.4076ZM19.344 20.4076V19.7404C19.4998 19.7404 19.6394 19.8363 19.6953 19.9817L19.0727 20.2213L18.45 20.4609C18.5923 20.8307 18.9476 21.0748 19.344 21.0748V20.4076ZM19.0727 20.2213L19.6954 19.9818L16.0401 10.4772L15.4174 10.7167L14.7947 10.9562L18.4499 20.4607L19.0727 20.2213ZM15.4174 10.7167V10.0495H12.0358V10.7167V11.3839H15.4174V10.7167ZM12.0358 10.7167H11.3686V12.0812H12.0358H12.703V10.7167H12.0358ZM12.0358 12.0812V12.7483H14.4258V12.0812V11.414H12.0358V12.0812ZM14.4258 12.0812V12.7483C14.27 12.7483 14.1303 12.6524 14.0744 12.5071L14.6971 12.2675L15.3198 12.0279C15.1775 11.658 14.8221 11.414 14.4258 11.414V12.0812ZM14.6971 12.2675L14.0744 12.5069L17.8012 22.1979L18.4239 21.9584L19.0466 21.7189L15.3198 12.028L14.6971 12.2675ZM18.4239 21.9584L17.8012 22.1978C17.7266 22.0038 17.8233 21.786 18.0175 21.7113L18.2569 22.334L18.4964 22.9568C18.9902 22.7669 19.2365 22.2125 19.0466 21.7189L18.4239 21.9584ZM18.2569 22.334L18.0183 21.711C18.0609 21.6947 18.1066 21.6863 18.1527 21.6863V22.3534V23.0206C18.2682 23.0206 18.3844 22.9997 18.4956 22.9571L18.2569 22.334ZM25.5601 22.3791V21.7119H0.446912V22.3791V23.0463H25.5601V22.3791ZM0.446912 22.3791V21.7119C0.654796 21.7119 0.823436 21.8804 0.823436 22.0884H0.15625H-0.510936C-0.510936 22.6175 -0.0819786 23.0463 0.446912 23.0463V22.3791ZM0.15625 22.0884H0.823436C0.823436 22.2964 0.6548 22.4649 0.446912 22.4649V21.7978V21.1306C-0.0819832 21.1306 -0.510936 21.5593 -0.510936 22.0884H0.15625ZM0.446912 21.7978V22.4649H25.5601V21.7978V21.1306H0.446912V21.7978ZM25.5601 21.7978V22.4649C25.3522 22.4649 25.1836 22.2963 25.1836 22.0884H25.8508H26.518C26.518 21.5594 26.0892 21.1306 25.5601 21.1306V21.7978ZM25.8508 22.0884H25.1836C25.1836 21.8804 25.3522 21.7119 25.5601 21.7119V22.3791V23.0463C26.089 23.0463 26.518 22.6175 26.518 22.0884H25.8508ZM10.0729 14.7782V14.111H5.26917V14.7782V15.4454H10.0729V14.7782ZM5.26917 14.7782V14.111C5.47706 14.111 5.6457 14.2795 5.6457 14.4875H4.97851H4.31132C4.31132 15.0167 4.74028 15.4454 5.26917 15.4454V14.7782ZM4.97851 14.4875H5.6457C5.6457 14.6955 5.47706 14.8641 5.26917 14.8641V14.1969V13.5297C4.74028 13.5297 4.31132 13.9584 4.31132 14.4875H4.97851ZM5.26917 14.1969V14.8641H10.0729V14.1969V13.5297H5.26917V14.1969ZM10.0729 14.1969V14.8641C9.865 14.8641 9.69636 14.6955 9.69636 14.4875H10.3635H11.0307C11.0307 13.9584 10.6018 13.5297 10.0729 13.5297V14.1969ZM10.3635 14.4875H9.69636C9.69636 14.2795 9.865 14.111 10.0729 14.111V14.7782V15.4454C10.6018 15.4454 11.0307 15.0167 11.0307 14.4875H10.3635ZM10.0729 17.5145V16.8473H5.26917V17.5145V18.1817H10.0729V17.5145ZM5.26917 17.5145V16.8473C5.47706 16.8473 5.6457 17.0158 5.6457 17.2238H4.97851H4.31132C4.31132 17.753 4.74028 18.1817 5.26917 18.1817V17.5145ZM4.97851 17.2238H5.6457C5.6457 17.4318 5.47706 17.6004 5.26917 17.6004V16.9332V16.266C4.74028 16.266 4.31132 16.6947 4.31132 17.2238H4.97851ZM5.26917 16.9332V17.6004H10.0729V16.9332V16.266H5.26917V16.9332ZM10.0729 16.9332V17.6004C9.865 17.6004 9.69636 17.4318 9.69636 17.2238H10.3635H11.0307C11.0307 16.6947 10.6018 16.266 10.0729 16.266V16.9332ZM10.3635 17.2238H9.69636C9.69636 17.0158 9.865 16.8473 10.0729 16.8473V17.5145V18.1817C10.6018 18.1817 11.0307 17.753 11.0307 17.2238H10.3635ZM10.0729 20.2509V19.5837H5.26917V20.2509V20.918H10.0729V20.2509ZM5.26917 20.2509V19.5837C5.47706 19.5837 5.6457 19.7522 5.6457 19.9602H4.97851H4.31132C4.31132 20.4893 4.74028 20.918 5.26917 20.918V20.2509ZM4.97851 19.9602H5.6457C5.6457 20.1682 5.47706 20.3367 5.26917 20.3367V19.6695V19.0023C4.74028 19.0023 4.31132 19.4311 4.31132 19.9602H4.97851ZM5.26917 19.6695V20.3367H10.0729V19.6695V19.0023H5.26917V19.6695ZM10.0729 19.6695V20.3367C9.865 20.3367 9.69636 20.1682 9.69636 19.9602H10.3635H11.0307C11.0307 19.4311 10.6018 19.0023 10.0729 19.0023V19.6695ZM10.3635 19.9602H9.69636C9.69636 19.7522 9.865 19.5837 10.0729 19.5837V20.2509V20.918C10.6018 20.918 11.0307 20.4893 11.0307 19.9602H10.3635ZM7.67103 5.35267V4.68549C7.27567 4.68549 6.95298 4.36278 6.95298 3.96749H6.28579H5.61861C5.61861 5.09981 6.53879 6.01986 7.67103 6.01986V5.35267ZM6.28579 3.96749H6.95298C6.95298 3.57219 7.27563 3.2495 7.67103 3.2495V2.58231V1.91513C6.53871 1.91513 5.61861 2.8352 5.61861 3.96749H6.28579ZM7.67103 2.58231V3.2495C8.06636 3.2495 8.38902 3.57217 8.38902 3.96749H9.05621H9.7234C9.7234 2.83521 8.80331 1.91513 7.67103 1.91513V2.58231ZM9.05621 3.96749H8.38902C8.38902 4.36282 8.06636 4.68549 7.67103 4.68549V5.35267V6.01986C8.80331 6.01986 9.7234 5.09977 9.7234 3.96749H9.05621ZM7.67103 3.16364V2.49645C6.85936 2.49645 6.19993 3.15569 6.19993 3.96749H6.86712H7.5343C7.5343 3.89277 7.59618 3.83082 7.67103 3.83082V3.16364ZM6.86712 3.96749H6.19993C6.19993 4.77929 6.85936 5.43853 7.67103 5.43853V4.77135V4.10416C7.59618 4.10416 7.5343 4.04221 7.5343 3.96749H6.86712ZM7.67103 4.77135V5.43853C8.48277 5.43853 9.14207 4.77923 9.14207 3.96749H8.47488H7.8077C7.8077 4.04228 7.74581 4.10416 7.67103 4.10416V4.77135ZM8.47488 3.96749H9.14207C9.14207 3.15576 8.48277 2.49645 7.67103 2.49645V3.16364V3.83082C7.74581 3.83082 7.8077 3.89271 7.8077 3.96749H8.47488ZM21.1164 8.34748V7.6803H15.2875V8.34748V9.01467H21.1164V8.34748ZM15.2875 8.34748V7.6803C14.7225 7.6803 14.2617 7.21956 14.2617 6.65455H13.5946H12.9274C12.9274 7.95652 13.9855 9.01467 15.2875 9.01467V8.34748ZM13.5946 6.65455H14.2617C14.2617 6.11055 14.6894 5.66245 15.2258 5.63066L15.1863 4.96464L15.1468 4.29862C13.9101 4.37193 12.9274 5.39958 12.9274 6.65455H13.5946ZM15.1863 4.96464L15.8438 5.07765C15.9268 4.59504 16.3501 4.22659 16.8547 4.22659V3.5594V2.89222C15.6884 2.89222 14.7197 3.74048 14.5287 4.85163L15.1863 4.96464ZM16.8547 3.5594V4.22659C16.9177 4.22659 16.9784 4.23202 17.0369 4.24249L17.1544 3.58574L17.2719 2.92898C17.1342 2.90434 16.9948 2.89222 16.8547 2.89222V3.5594ZM17.1544 3.58574L17.818 3.65508C17.9086 2.78822 18.6455 2.10946 19.5355 2.10946V1.44228V0.775093C17.9544 0.775093 16.6516 1.97774 16.4908 3.5164L17.1544 3.58574ZM19.5355 1.44228V2.10946C20.4871 2.10946 21.2623 2.88472 21.2623 3.83629H21.9295H22.5967C22.5967 2.14772 21.224 0.775093 19.5355 0.775093V1.44228ZM21.9295 3.83629H21.2623C21.2623 4.14353 21.1815 4.44032 21.031 4.70034L21.6085 5.03457L22.1859 5.36881C22.4537 4.90612 22.5967 4.37883 22.5967 3.83629H21.9295ZM21.6085 5.03457L21.4142 5.67286C21.8361 5.80122 22.1422 6.1946 22.1422 6.65461H22.8094H23.4765C23.4765 5.58969 22.7694 4.69044 21.8027 4.39628L21.6085 5.03457ZM22.8094 6.65461L22.1422 6.65457C22.1421 7.21958 21.6814 7.6803 21.1164 7.6803V8.34748V9.01467C22.4184 9.01467 23.4765 7.9565 23.4765 6.65465L22.8094 6.65461ZM15.2875 5.54294V4.87575C14.3061 4.87575 13.5087 5.67312 13.5087 6.65455H14.1759H14.8431C14.8431 6.41008 15.043 6.21013 15.2875 6.21013V5.54294ZM14.1759 6.65455H13.5087C13.5087 7.63597 14.3061 8.43334 15.2875 8.43334V7.76616V7.09897C15.043 7.09897 14.8431 6.89902 14.8431 6.65455H14.1759ZM15.2875 7.76616V8.43334H21.1165V7.76616V7.09897H15.2875V7.76616ZM21.1165 7.76616V8.43334C22.0979 8.43334 22.8952 7.63595 22.8952 6.65455H22.228H21.5608C21.5608 6.89904 21.3609 7.09897 21.1165 7.09897V7.76616ZM22.228 6.65455H22.8952C22.8952 5.67315 22.0979 4.87575 21.1165 4.87575V5.54294V6.21013C21.3609 6.21013 21.5608 6.41005 21.5608 6.65455H22.228ZM21.1165 5.54294L21.1088 4.8758L21.0886 4.87603L21.0962 5.54317L21.1039 6.21031L21.1242 6.21008L21.1165 5.54294ZM21.0962 5.54317L21.0853 4.87608C21.2327 4.87366 21.3711 4.9596 21.4335 5.09716L20.8258 5.37261L20.2181 5.64807C20.3764 5.99722 20.7256 6.21652 21.1072 6.21027L21.0962 5.54317ZM20.8258 5.37261L21.4335 5.09716C21.4956 5.23426 21.4701 5.39496 21.369 5.50599L20.8757 5.05678L20.3824 4.60757C20.1249 4.89032 20.0601 5.29936 20.2181 5.64807L20.8258 5.37261ZM20.8757 5.05678L21.3688 5.50622C21.7856 5.04893 22.0154 4.45511 22.0154 3.83623H21.3482H20.681C20.681 4.12294 20.5751 4.3961 20.3826 4.60734L20.8757 5.05678ZM21.3482 3.83623H22.0154C22.0154 2.46821 20.9035 1.35636 19.5355 1.35636V2.02354V2.69073C20.1666 2.69073 20.681 3.20519 20.681 3.83623H21.3482ZM19.5355 2.02354V1.35636C18.1674 1.35636 17.0555 2.46821 17.0555 3.83623H17.7227H18.3899C18.3899 3.20519 18.9043 2.69073 19.5355 2.69073V2.02354ZM17.7227 3.83623H17.0555C17.0555 3.89012 17.0574 3.94572 17.0612 4.00191L17.7268 3.95703L18.3925 3.91215C18.3907 3.88556 18.3899 3.85989 18.3899 3.83623H17.7227ZM17.7268 3.95703L17.0611 4.00098C17.0524 3.86875 17.1138 3.74176 17.2227 3.66655L17.6019 4.21549L17.9811 4.76442C18.2585 4.57283 18.4148 4.24958 18.3926 3.91308L17.7268 3.95703ZM17.6019 4.21549L17.2228 3.66649C17.332 3.59109 17.4728 3.57865 17.5936 3.63391L17.316 4.2406L17.0384 4.84729C17.3454 4.98777 17.7035 4.95615 17.981 4.76448L17.6019 4.21549ZM17.316 4.2406L17.5934 3.63381C17.3603 3.52726 17.1104 3.47348 16.8546 3.47348V4.14067V4.80786C16.921 4.80786 16.9815 4.82128 17.0386 4.84739L17.316 4.2406ZM16.8546 4.14067V3.47348C15.8732 3.47348 15.0759 4.27088 15.0759 5.25228H15.7431H16.4103C16.4103 5.00778 16.6102 4.80786 16.8546 4.80786V4.14067ZM15.7431 5.25228L15.076 5.26384C15.0742 5.16114 15.115 5.05716 15.2001 4.98019L15.6475 5.47516L16.0949 5.97013C16.3046 5.78061 16.4148 5.51107 16.4102 5.24071L15.7431 5.25228ZM15.6475 5.47516L15.1997 4.9806C15.2713 4.91575 15.3761 4.87418 15.4949 4.88787L15.4186 5.55067L15.3422 6.21347C15.6275 6.24635 15.8994 6.14711 16.0953 5.96971L15.6475 5.47516ZM15.4186 5.55067L15.4964 4.88804C15.4275 4.87995 15.3573 4.87575 15.2875 4.87575V5.54294V6.21013C15.3044 6.21013 15.3226 6.21117 15.3407 6.2133L15.4186 5.55067Z" fill="#FAF2E7" mask="url(#path-1-inside-1_37_1000)"/>
</svg>
