<svg width="26" height="27" viewBox="0 0 26 27" fill="none" xmlns="http://www.w3.org/2000/svg">
<mask id="path-1-inside-1_37_1007" fill="white">
<path d="M25.4562 9.86617H25.4495L15.123 5.31828V3.90043H15.5313C15.725 3.90144 15.9134 3.83675 16.0656 3.71691C16.2179 3.59707 16.325 3.42916 16.3695 3.2406C16.4141 3.05203 16.3934 2.85394 16.3108 2.67865C16.2282 2.50337 16.0887 2.36125 15.915 2.27549L13.3892 1.02576C13.2699 0.967054 13.1386 0.936523 13.0056 0.936523C12.8725 0.936523 12.7413 0.967054 12.6219 1.02576L10.0962 2.27549C9.92243 2.36125 9.78289 2.50337 9.70033 2.67865C9.61777 2.85394 9.59706 3.05203 9.64159 3.2406C9.68611 3.42916 9.79324 3.59707 9.94549 3.71691C10.0977 3.83675 10.2861 3.90144 10.4799 3.90043H10.8881V5.31828L0.560814 9.86236H0.554038C0.47831 9.8956 0.413974 9.95029 0.36897 10.0197C0.323966 10.0891 0.300265 10.1701 0.30079 10.2528V11.5233C0.30079 11.7479 0.390025 11.9634 0.548866 12.1222C0.707706 12.281 0.92314 12.3703 1.14777 12.3703H1.57127V23.3811H1.14777C0.92314 23.3811 0.707706 23.4703 0.548866 23.6292C0.390025 23.788 0.30079 24.0034 0.30079 24.2281V25.4985C0.30079 25.7232 0.390025 25.9386 0.548866 26.0975C0.707706 26.2563 0.92314 26.3455 1.14777 26.3455H24.8633C25.088 26.3455 25.3034 26.2563 25.4623 26.0975C25.6211 25.9386 25.7103 25.7232 25.7103 25.4985V24.2281C25.7103 24.0034 25.6211 23.788 25.4623 23.6292C25.3034 23.4703 25.088 23.3811 24.8633 23.3811H24.4399V12.3703H24.8633C25.088 12.3703 25.3034 12.281 25.4623 12.1222C25.6211 11.9634 25.7103 11.7479 25.7103 11.5233V10.2528C25.71 10.1707 25.6859 10.0904 25.6408 10.0217C25.5956 9.95307 25.5315 9.89903 25.4562 9.86617ZM14.6106 6.01789L23.2731 9.82932H2.73799L11.4005 6.01789H14.6106ZM10.4718 3.03481L13.0128 1.78509L15.538 3.03481L15.5313 3.05345L10.4718 3.03481ZM14.276 3.90043V5.17091H11.7351V3.90043H14.276ZM2.41825 12.3703H3.26524V23.3811H2.41825V12.3703ZM20.6284 23.3811V18.2992H21.8989V23.3811H20.6284ZM18.511 18.2992H19.7814V23.3811H18.511V18.2992ZM21.8989 17.4522H18.511V12.3703H21.8989V17.4522ZM17.664 23.3811H16.817V12.3703H17.664V23.3811ZM15.97 23.3811H10.0411V12.3703H15.97V23.3811ZM9.19413 23.3811H8.34714V12.3703H9.19413V23.3811ZM4.11222 18.2992H5.3827V23.3811H4.11222V18.2992ZM6.22968 18.2992H7.50016V23.3811H6.22968V18.2992ZM7.50016 17.4522H4.11222V12.3703H7.50016V17.4522ZM24.8633 25.4985H1.14777V24.2281H24.8633V25.4985ZM23.5929 23.3811H22.7459V12.3703H23.5929V23.3811ZM1.14777 11.5233V10.6763H24.8633V11.5233H1.14777Z"/>
</mask>
<path d="M25.4562 9.86617H25.4495L15.123 5.31828V3.90043H15.5313C15.725 3.90144 15.9134 3.83675 16.0656 3.71691C16.2179 3.59707 16.325 3.42916 16.3695 3.2406C16.4141 3.05203 16.3934 2.85394 16.3108 2.67865C16.2282 2.50337 16.0887 2.36125 15.915 2.27549L13.3892 1.02576C13.2699 0.967054 13.1386 0.936523 13.0056 0.936523C12.8725 0.936523 12.7413 0.967054 12.6219 1.02576L10.0962 2.27549C9.92243 2.36125 9.78289 2.50337 9.70033 2.67865C9.61777 2.85394 9.59706 3.05203 9.64159 3.2406C9.68611 3.42916 9.79324 3.59707 9.94549 3.71691C10.0977 3.83675 10.2861 3.90144 10.4799 3.90043H10.8881V5.31828L0.560814 9.86236H0.554038C0.47831 9.8956 0.413974 9.95029 0.36897 10.0197C0.323966 10.0891 0.300265 10.1701 0.30079 10.2528V11.5233C0.30079 11.7479 0.390025 11.9634 0.548866 12.1222C0.707706 12.281 0.92314 12.3703 1.14777 12.3703H1.57127V23.3811H1.14777C0.92314 23.3811 0.707706 23.4703 0.548866 23.6292C0.390025 23.788 0.30079 24.0034 0.30079 24.2281V25.4985C0.30079 25.7232 0.390025 25.9386 0.548866 26.0975C0.707706 26.2563 0.92314 26.3455 1.14777 26.3455H24.8633C25.088 26.3455 25.3034 26.2563 25.4623 26.0975C25.6211 25.9386 25.7103 25.7232 25.7103 25.4985V24.2281C25.7103 24.0034 25.6211 23.788 25.4623 23.6292C25.3034 23.4703 25.088 23.3811 24.8633 23.3811H24.4399V12.3703H24.8633C25.088 12.3703 25.3034 12.281 25.4623 12.1222C25.6211 11.9634 25.7103 11.7479 25.7103 11.5233V10.2528C25.71 10.1707 25.6859 10.0904 25.6408 10.0217C25.5956 9.95307 25.5315 9.89903 25.4562 9.86617ZM14.6106 6.01789L23.2731 9.82932H2.73799L11.4005 6.01789H14.6106ZM10.4718 3.03481L13.0128 1.78509L15.538 3.03481L15.5313 3.05345L10.4718 3.03481ZM14.276 3.90043V5.17091H11.7351V3.90043H14.276ZM2.41825 12.3703H3.26524V23.3811H2.41825V12.3703ZM20.6284 23.3811V18.2992H21.8989V23.3811H20.6284ZM18.511 18.2992H19.7814V23.3811H18.511V18.2992ZM21.8989 17.4522H18.511V12.3703H21.8989V17.4522ZM17.664 23.3811H16.817V12.3703H17.664V23.3811ZM15.97 23.3811H10.0411V12.3703H15.97V23.3811ZM9.19413 23.3811H8.34714V12.3703H9.19413V23.3811ZM4.11222 18.2992H5.3827V23.3811H4.11222V18.2992ZM6.22968 18.2992H7.50016V23.3811H6.22968V18.2992ZM7.50016 17.4522H4.11222V12.3703H7.50016V17.4522ZM24.8633 25.4985H1.14777V24.2281H24.8633V25.4985ZM23.5929 23.3811H22.7459V12.3703H23.5929V23.3811ZM1.14777 11.5233V10.6763H24.8633V11.5233H1.14777Z" fill="#FAF2E7" stroke="#FAF2E7" stroke-width="1.17279" mask="url(#path-1-inside-1_37_1007)"/>
</svg>
