<svg width="17" height="17" viewBox="0 0 17 17" fill="none" xmlns="http://www.w3.org/2000/svg">
<path d="M16.2467 0.482516L1.44932 0.526801C1.24622 0.513406 1.04753 0.590402 0.906623 0.737227C0.612297 1.0301 0.611103 1.50614 0.904026 1.80052C1.04545 1.94267 1.23781 2.02236 1.43832 2.02205L14.3971 2.02205L1.19456 15.2246C0.894888 15.5121 0.884972 15.988 1.17239 16.2877C1.17608 16.2915 1.17976 16.2952 1.1835 16.299C1.47087 16.5987 1.94681 16.6087 2.24653 16.3214C2.25416 16.314 2.26159 16.3066 2.26891 16.299L15.4714 3.0965L15.4603 16.0443C15.4534 16.4595 15.7845 16.8016 16.1997 16.8085C16.208 16.8086 16.2163 16.8087 16.2246 16.8085C16.6221 16.8269 16.9593 16.5197 16.9777 16.1222C16.9787 16.0999 16.9787 16.0776 16.9777 16.0554L16.9777 1.28014C16.9815 1.17038 16.9626 1.06104 16.9223 0.95892C16.8758 0.895371 16.8197 0.8393 16.7562 0.792781L16.7894 0.693096C16.6485 0.546167 16.4498 0.469122 16.2467 0.482516Z" fill="#3B0608"/>
</svg>
