<svg width="17" height="18" viewBox="0 0 17 18" fill="none" xmlns="http://www.w3.org/2000/svg">
<path d="M15.6471 17.1482L0.849716 17.1039C0.646611 17.1173 0.44792 17.0403 0.307014 16.8935C0.0126883 16.6006 0.0114934 16.1246 0.304417 15.8302C0.445843 15.6881 0.638199 15.6084 0.838709 15.6087L13.7975 15.6087L0.594952 2.4061C0.295278 2.11868 0.285363 1.64274 0.572783 1.34307C0.57647 1.33928 0.580155 1.33549 0.583893 1.33175C0.871261 1.03203 1.3472 1.02201 1.64692 1.30938C1.65455 1.3167 1.66198 1.32412 1.6693 1.33175L14.8718 14.5342L14.8607 1.58646C14.8538 1.17127 15.1849 0.829131 15.6 0.822226C15.6083 0.822122 15.6167 0.82207 15.625 0.822225C16.0225 0.803795 16.3597 1.11105 16.3781 1.50859C16.3791 1.53081 16.3791 1.55313 16.3781 1.57535L16.3781 16.3506C16.3819 16.4604 16.363 16.5697 16.3227 16.6718C16.2762 16.7354 16.2201 16.7914 16.1566 16.838L16.1898 16.9376C16.0489 17.0846 15.8502 17.1616 15.6471 17.1482Z" fill="#FAF2E7"/>
</svg>
