<svg width="248" height="76" viewBox="0 0 248 76" fill="none" xmlns="http://www.w3.org/2000/svg">
<path d="M100.072 57.3859V57.709H98.3348V62.3031H97.9832V57.709H96.2461V57.3859H100.072Z" fill="white"/>
<path d="M104.444 57.3859L102.597 60.4556H103.755V60.7225H102.5V62.3031H102.149V60.7225H100.88V60.4556H102.052L100.205 57.3859H100.591L102.335 60.28L104.079 57.3859H104.444Z" fill="white"/>
<path d="M107.009 57.3859C108.222 57.3859 108.953 58.0041 108.953 59.0437C108.953 60.0763 108.222 60.6944 107.009 60.6944H105.63V62.3031H105.279V57.3859H107.009ZM107.009 60.3713C108.043 60.3713 108.595 59.8866 108.595 59.0437C108.595 58.1937 108.043 57.709 107.009 57.709H105.63V60.3713H107.009Z" fill="white"/>
<path d="M113.282 57.709H110.649V59.8656H112.772V60.1536H110.649V62.3031H110.298V60.1536H109.553V59.8656H110.298V57.3859H113.282V57.709Z" fill="white"/>
<path d="M116.216 59.1842C117.354 59.1842 117.96 59.704 117.96 60.7155C117.96 61.7551 117.312 62.3031 116.127 62.3031H114.279V57.3859H114.631V59.1842H116.216ZM118.85 62.3031V57.3859H119.201V62.3031H118.85ZM116.134 62.001C117.099 62.001 117.602 61.5655 117.602 60.7225C117.602 59.8866 117.106 59.4862 116.134 59.4862H114.631V62.001H116.134Z" fill="white"/>
<path d="M124.515 57.3859H124.866V62.3031H124.515V59.9639H121.289V62.3031H120.937V57.3859H121.289V59.6478H124.515V57.3859Z" fill="white"/>
<path d="M131.829 57.3859L129.885 60.6102V62.3031H129.534V60.6102L127.59 57.3859H127.976L129.72 60.28L131.464 57.3859H131.829Z" fill="white"/>
<path d="M134.622 57.0136C133.987 57.0136 133.56 56.6975 133.546 56.1566H133.829C133.843 56.55 134.16 56.7888 134.622 56.7888C135.077 56.7888 135.394 56.55 135.408 56.1566H135.69C135.676 56.6975 135.249 57.0136 134.622 57.0136ZM132.664 62.3031V57.3859H133.016V61.699L136.304 57.3859H136.614V62.3031H136.262V57.997L132.974 62.3031H132.664Z" fill="white"/>
<path d="M143.473 62.3031L141.633 59.9709H140.474V62.3031H140.123V57.3859H140.474V59.6478H141.639L143.37 57.3859H143.763L141.915 59.7813L143.887 62.3031H143.473Z" fill="white"/>
<path d="M145.099 61.9799H148.077V62.3031H144.748V57.3859H147.974V57.709H145.099V59.6478H147.67V59.9639H145.099V61.9799Z" fill="white"/>
<path d="M154.697 57.3859H155.049V62.3031H149.251V57.3859H149.603V61.9799H151.974V57.3859H152.326V61.9799H154.697V57.3859Z" fill="white"/>
<path d="M157.136 61.9799H160.114V62.3031H156.784V57.3859H160.01V57.709H157.136V59.6478H159.707V59.9639H157.136V61.9799Z" fill="white"/>
<path d="M164.865 57.3859H165.217V62.3031H164.865V59.9639H161.639V62.3031H161.288V57.3859H161.639V59.6478H164.865V57.3859Z" fill="white"/>
<path d="M166.956 62.3031V57.3859H167.308V62.3031H166.956Z" fill="white"/>
<path d="M180.472 62.3031L178.88 59.9709H177.818V62.3031H177.474V59.9709H176.412L174.82 62.3031H174.399L176.122 59.7742L174.53 57.3859H174.93L176.405 59.6478H177.474V57.3859H177.818V59.6478H178.88L180.362 57.3859H180.755L179.169 59.7742L180.893 62.3031H180.472Z" fill="white"/>
<path d="M181.78 62.3031V57.3859H182.131V61.699L185.419 57.3859H185.73V62.3031H185.378V57.997L182.09 62.3031H181.78Z" fill="white"/>
<path d="M187.863 57.3859H191.027V62.3031H190.676V57.709H188.18L188.118 59.5143C188.042 61.4952 187.732 62.3452 186.919 62.3452C186.809 62.3452 186.705 62.3382 186.574 62.3031L186.615 61.9729C186.705 61.994 186.767 62.001 186.843 62.001C187.47 62.001 187.725 61.2915 187.794 59.5214L187.863 57.3859Z" fill="white"/>
<path d="M194.834 62.3382C193.393 62.3382 192.325 61.2705 192.325 59.8445C192.325 58.4185 193.393 57.3508 194.834 57.3508C196.268 57.3508 197.343 58.4115 197.343 59.8445C197.343 61.2775 196.268 62.3382 194.834 62.3382ZM194.834 62.008C196.061 62.008 196.985 61.0878 196.985 59.8445C196.985 58.6011 196.061 57.6809 194.834 57.6809C193.6 57.6809 192.677 58.6011 192.677 59.8445C192.677 61.0878 193.6 62.008 194.834 62.008Z" fill="white"/>
<path d="M200.601 57.0136C199.967 57.0136 199.539 56.6975 199.525 56.1566H199.808C199.822 56.55 200.139 56.7888 200.601 56.7888C201.056 56.7888 201.373 56.55 201.387 56.1566H201.669C201.655 56.6975 201.228 57.0136 200.601 57.0136ZM198.643 62.3031V57.3859H198.995V61.699L202.283 57.3859H202.593V62.3031H202.241V57.997L198.953 62.3031H198.643Z" fill="white"/>
<path d="M209.452 62.3031L207.612 59.9709H206.453V62.3031H206.102V57.3859H206.453V59.6478H207.618L209.349 57.3859H209.742L207.894 59.7813L209.866 62.3031H209.452Z" fill="white"/>
<path d="M212.788 62.3382C211.347 62.3382 210.279 61.2705 210.279 59.8445C210.279 58.4185 211.347 57.3508 212.788 57.3508C214.222 57.3508 215.297 58.4115 215.297 59.8445C215.297 61.2775 214.222 62.3382 212.788 62.3382ZM212.788 62.008C214.015 62.008 214.939 61.0878 214.939 59.8445C214.939 58.6011 214.015 57.6809 212.788 57.6809C211.554 57.6809 210.63 58.6011 210.63 59.8445C210.63 61.0878 211.554 62.008 212.788 62.008Z" fill="white"/>
<path d="M221.505 62.3031H221.16L221.153 58.0954L219.134 61.6498H218.961L216.942 58.1094V62.3031H216.597V57.3859H216.893L219.051 61.1862L221.209 57.3859H221.498L221.505 62.3031Z" fill="white"/>
<path d="M223.241 57.3859H227.212V62.3031H226.86V57.709H223.593V62.3031H223.241V57.3859Z" fill="white"/>
<path d="M229.345 57.3859H232.509V62.3031H232.157V57.709H229.662L229.6 59.5143C229.524 61.4952 229.214 62.3452 228.4 62.3452C228.29 62.3452 228.187 62.3382 228.056 62.3031L228.097 61.9729C228.187 61.994 228.249 62.001 228.325 62.001C228.952 62.001 229.207 61.2915 229.276 59.5214L229.345 57.3859Z" fill="white"/>
<path d="M234.599 61.9799H237.577V62.3031H234.248V57.3859H237.474V57.709H234.599V59.6478H237.171V59.9639H234.599V61.9799Z" fill="white"/>
<path d="M242.102 62.3031L240.261 59.9709H239.103V62.3031H238.751V57.3859H239.103V59.6478H240.268L241.998 57.3859H242.391L240.544 59.7813L242.515 62.3031H242.102Z" fill="white"/>
<path d="M245.437 62.3382C244.004 62.3382 242.935 61.2775 242.935 59.8445C242.935 58.4115 244.004 57.3508 245.437 57.3508C246.12 57.3508 246.733 57.5756 247.154 58.0322L246.933 58.264C246.52 57.8495 246.017 57.6809 245.451 57.6809C244.217 57.6809 243.287 58.6082 243.287 59.8445C243.287 61.0808 244.217 62.008 245.451 62.008C246.017 62.008 246.52 61.8324 246.933 61.418L247.154 61.6498C246.733 62.1064 246.12 62.3382 245.437 62.3382Z" fill="white"/>
<path d="M170.826 63.5957V56.212H171.177V63.5957H170.826Z" fill="white"/>
<path d="M126.464 42.5343H108.444L105.006 50.8515H95.8018L113.101 12.0379H121.973L139.328 50.8515H129.902L126.464 42.5343ZM123.637 35.7142L117.482 20.8542L111.327 35.7142H123.637ZM169.638 30.6684C171.855 31.3708 173.593 32.5537 174.85 34.2171C176.106 35.8436 176.735 37.8582 176.735 40.2609C176.735 43.6617 175.404 46.2863 172.743 48.1345C170.118 49.9458 166.274 50.8515 161.209 50.8515H141.137V12.0379H160.101C164.832 12.0379 168.455 12.9436 170.968 14.7549C173.519 16.5662 174.794 19.0244 174.794 22.1295C174.794 24.0147 174.332 25.6966 173.408 27.1752C172.521 28.6538 171.264 29.8182 169.638 30.6684ZM150.064 18.8026V27.9515H158.992C161.209 27.9515 162.891 27.5634 164.037 26.7871C165.183 26.0108 165.756 24.8649 165.756 23.3493C165.756 21.8337 165.183 20.7063 164.037 19.967C162.891 19.1907 161.209 18.8026 158.992 18.8026H150.064ZM160.544 44.0868C162.91 44.0868 164.684 43.6987 165.867 42.9224C167.087 42.1461 167.697 40.9448 167.697 39.3183C167.697 36.1023 165.313 34.4943 160.544 34.4943H150.064V44.0868H160.544ZM206.879 42.5343H188.858L185.421 50.8515H176.216L193.516 12.0379H202.388L219.743 50.8515H210.317L206.879 42.5343ZM204.051 35.7142L197.896 20.8542L191.742 35.7142H204.051ZM225.425 19.3571H213.004V12.0379H246.827V19.3571H234.407V50.8515H225.425V19.3571Z" fill="white"/>
<path d="M69.7031 0.0613327C73.1704 0.0614256 75.9814 2.87234 75.9814 6.33965V69.1082C75.9814 72.5755 73.1704 75.3864 69.7031 75.3865H6.93457C3.46724 75.3865 0.656308 72.5755 0.65625 69.1082V6.33965C0.65625 2.87228 3.4672 0.0613327 6.93457 0.0613327H69.7031ZM21.2871 8.62481C23.8751 10.7443 25.1308 13.7933 23.625 17.3074L8.2168 50.1746L19.4746 66.8231H27.5293C27.0861 60.5452 29.8127 57.059 41.502 50.9227L47.0244 66.8231H56.4385C61.4729 66.8226 71.8648 56.6926 67.2812 47.5613C54.8967 22.889 23.4249 54.8585 23.3867 54.8973L19.4746 48.9822L35.4551 15.16H45.0439L50.1953 32.0477C68.0554 29.361 61.6661 8.62502 50.625 8.62481H21.2871ZM57.0625 54.8973H50.1953L47.0244 45.1131L53.5596 43.699L57.0625 54.8973ZM32.1914 38.3787C36.3256 35.7774 38.7183 34.5079 43.4082 33.3172L39.7842 21.7547L32.1914 38.3787Z" fill="white"/>
</svg>
