<svg width="37" height="38" viewBox="0 0 37 38" fill="none" xmlns="http://www.w3.org/2000/svg">
<path d="M18.879 1.75762C19.0039 0.986417 19.7329 0.463265 20.5041 0.588119C20.5518 0.597257 20.7054 0.625963 20.7859 0.643886C20.9468 0.679728 21.1713 0.734911 21.4513 0.816439C22.011 0.979477 22.793 1.24806 23.7315 1.67835C25.6106 2.53983 28.1112 4.04682 30.7061 6.6417C33.3009 9.23658 34.8079 11.7372 35.6694 13.6162C36.0997 14.5548 36.3683 15.3368 36.5313 15.8965C36.6129 16.1764 36.668 16.4009 36.7039 16.5619C36.7218 16.6423 36.7349 16.707 36.744 16.7547L36.7549 16.8135C36.8797 17.5847 36.3614 18.3439 35.5901 18.4688C34.8212 18.5933 34.0967 18.0726 33.9688 17.3051C33.9648 17.2845 33.954 17.2291 33.9424 17.1769C33.9191 17.0724 33.8789 16.9068 33.8151 16.6877C33.6874 16.2495 33.4658 15.5981 33.0977 14.7953C32.3624 13.1915 31.0403 10.9769 28.7056 8.6422C26.3709 6.30748 24.1562 4.98534 22.5525 4.25009C21.7496 3.88201 21.0983 3.66033 20.6601 3.53269C20.441 3.46888 20.1657 3.40568 20.0612 3.38241C19.2936 3.2545 18.7545 2.52662 18.879 1.75762Z" fill="#E0B891"/>
<path fill-rule="evenodd" clip-rule="evenodd" d="M19.3057 8.26361C19.5204 7.51243 20.3033 7.07746 21.0545 7.29208L20.6659 8.65222C21.0545 7.29208 21.0545 7.29208 21.0545 7.29208L21.0572 7.29286L21.0601 7.2937L21.0664 7.29553L21.081 7.2999L21.1183 7.31152C21.1468 7.32062 21.1823 7.33246 21.2246 7.34749C21.3093 7.37754 21.4213 7.42029 21.5586 7.47914C21.8334 7.5969 22.2088 7.77876 22.67 8.0517C23.5932 8.59807 24.8534 9.50561 26.3339 10.9861C27.8145 12.4667 28.722 13.7269 29.2684 14.6501C29.5413 15.1113 29.7232 15.4867 29.8409 15.7615C29.8998 15.8988 29.9425 16.0108 29.9726 16.0955C29.9876 16.1378 29.9995 16.1733 30.0086 16.2018L30.0202 16.2391L30.0245 16.2537L30.0264 16.26L30.0272 16.2629C30.0272 16.2629 30.028 16.2656 28.6679 16.6542L30.028 16.2656C30.2426 17.0168 29.8076 17.7997 29.0565 18.0143C28.3117 18.2271 27.5356 17.8013 27.3133 17.0619L27.3063 17.0416C27.2963 17.0132 27.2755 16.9574 27.2405 16.8759C27.1708 16.7131 27.0442 16.4467 26.8337 16.091C26.4132 15.3805 25.6536 14.3068 24.3334 12.9866C23.0133 11.6665 21.9396 10.9069 21.229 10.4864C20.8734 10.2759 20.607 10.1493 20.4441 10.0795C20.3627 10.0446 20.3069 10.0238 20.2785 10.0137L20.2582 10.0068C19.5187 9.78444 19.0929 9.00841 19.3057 8.26361Z" fill="#E0B891"/>
<path fill-rule="evenodd" clip-rule="evenodd" d="M3.3147 6.52331C6.48346 3.35456 11.8308 3.59544 14.0372 7.54891L15.2613 9.7423C16.7021 12.324 16.0881 15.5814 13.9789 17.7164C13.9508 17.7549 13.8019 17.9717 13.7833 18.3504C13.7597 18.8339 13.9314 19.9519 15.6636 21.6842C17.3953 23.4158 18.5132 23.5879 18.9968 23.5644C19.3759 23.546 19.5928 23.397 19.6314 23.3689C21.7664 21.2597 25.0238 20.6457 27.6055 22.0865L29.7989 23.3106C33.7523 25.517 33.9932 30.8643 30.8245 34.0331C29.1295 35.728 26.8758 37.234 24.2273 37.3344C20.3025 37.4832 13.7857 36.4697 7.33187 30.0159C0.878093 23.5621 -0.135465 17.0452 0.0133243 13.1204C0.113726 10.472 1.61975 8.21826 3.3147 6.52331ZM11.5667 8.92763C10.4369 6.90321 7.40089 6.43812 5.3152 8.52381C3.85283 9.98618 2.90211 11.6003 2.84042 13.2276C2.71634 16.5006 3.52442 22.2074 9.33237 28.0154C15.1403 33.8233 20.8472 34.6314 24.1202 34.5073C25.7474 34.4456 27.3616 33.4949 28.824 32.0326C30.9096 29.9469 30.4446 26.9108 28.4201 25.7811L26.2267 24.557C24.8623 23.7955 22.9458 24.0552 21.6005 25.4006C21.4683 25.5326 20.627 26.3176 19.1343 26.3902C17.6061 26.4645 15.7564 25.7779 13.6631 23.6847C11.5692 21.5907 10.8828 19.7404 10.9576 18.2121C11.0307 16.7192 11.8157 15.8788 11.9471 15.7474C13.2925 14.402 13.5523 12.4854 12.7908 11.121L11.5667 8.92763Z" fill="#E0B891"/>
</svg>
